<?xml version="1.0" encoding="utf-8"?>
<svg version="1.1" xmlns:xlink="http://www.w3.org/1999/xlink" width="21px" height="21px" xmlns="http://www.w3.org/2000/svg">
  <g transform="matrix(1 0 0 1 -988 -496 )">
    <path d="M 1.09355859375 8.1832734375  L 9.62956640625 15.5454140625  C 9.8975625 15.7757578125  10.22757421875 15.8909296875  10.55980078125 15.8909296875  C 10.8942421875 15.8909296875  11.22868359375 15.77354296875  11.4966796875 15.53876953125  L 19.9130859375 8.17662890625  C 20.50444921875 7.65835546875  20.56425 6.75912890625  20.04819140625 6.16998046875  C 19.52991796875 5.5786171875  18.63069140625 5.5166015625  18.04154296875 6.034875  L 11.98173046875 11.33278125  L 11.98173046875 1.9595625  C 11.98173046875 1.17329296875  11.34385546875 0.5376328125  10.55980078125 0.5376328125  C 9.77574609375 0.5376328125  9.13787109375 1.1755078125  9.13787109375 1.9595625  L 9.13787109375 11.359359375  L 2.9518125 6.02823046875  C 2.358234375 5.51438671875  1.4590078125 5.583046875  0.9451640625 6.176625  C 0.4313203125 6.77241796875  0.497765625 7.6694296875  1.09355859375 8.1832734375  Z M 20.39813671875 19.09359375  C 20.39813671875 18.3095390625  19.7624765625 17.6716640625  18.97620703125 17.6716640625  L 2.02379296875 17.6716640625  C 1.2375234375 17.6716640625  0.5996484375 18.30732421875  0.5996484375 19.09359375  C 0.5996484375 19.87986328125  1.2375234375 20.5155234375  2.021578125 20.5155234375  L 18.97620703125 20.5155234375  C 19.7624765625 20.5155234375  20.39813671875 19.8776484375  20.39813671875 19.09359375  Z " fill-rule="nonzero" fill="#707070" stroke="none" transform="matrix(1 0 0 1 988 496 )" />
  </g>
</svg>