<?xml version="1.0" encoding="utf-8"?>
<svg version="1.1" xmlns:xlink="http://www.w3.org/1999/xlink" width="21px" height="21px" xmlns="http://www.w3.org/2000/svg">
  <g transform="matrix(1 0 0 1 -893 -496 )">
    <path d="M 19.6469246612466 9.77882926829268  C 20.1142635307729 9.27381441129442  20.3207680555431 8.56711404899073  20.2024932249323 7.87756097560976  C 19.9657796728875 7.2217723012075  19.4312924948306 6.73058258685975  18.7756921409214 6.56634146341463  L 14.5205420054201 5.37313170731707  L 11.6543132791328 1.03299512195122  C 11.3278297194677 0.449847763159726  10.7483993927431 0.0682716943410849  10.1012466124661 0.0102439024390237  C 9.4360705380226 0.0445827346967831  8.84131605087987 0.451314461832856  8.54817994579946 1.07233170731707  L 6.17438699186992 5.00599024390244  L 2.99249430894309 6.01562926829268  L 1.43942764227642 6.56634146341463  C 0.83396650143684 6.70580727375247  0.330716961699247 7.14049765620733  0.0883859078590784 7.73332682926829  C -0.0776533911602043 8.42497317837477  0.0662096628852516 9.15749671907272  0.479809214092141 9.72638048780488  L 3.25765203252033 13.3846829268293  L 3.10613333333333 18.6295609756098  C 2.98478235190398 19.2617441970937  3.11209470874118 19.9180673773272  3.45967696476965 20.452156097561  C 3.71004087450402 20.740764234768  4.07074473589373 20.8992391561182  4.4445485094851 20.8848585365854  C 4.85666522504627 20.8654094181673  5.26245970007507 20.7722574070979  5.64407154471545 20.6095024390244  L 9.74770298102981 18.8786926829268  L 14.4069029810298 20.6750634146341  C 14.6793797324345 20.7725640583623  14.9647568042143 20.8256422278552  15.2528823848239 20.8324097560976  C 15.8337040650407 20.8324097560976  16.8059490514905 20.5570536585366  16.881708401084 18.7082341463415  L 16.6291772357724 13.987843902439  L 19.6469246612466 9.77882926829268  Z " fill-rule="nonzero" fill="#7f7f7f" stroke="none" transform="matrix(1 0 0 1 893 496 )" />
  </g>
</svg>