<?xml version="1.0" encoding="utf-8"?>
<svg version="1.1" xmlns:xlink="http://www.w3.org/1999/xlink" width="13px" height="21px" xmlns="http://www.w3.org/2000/svg">
  <g transform="matrix(1 0 0 1 -1085 -496 )">
    <path d="M 11.5581478678385 8.61176475123355  L 6.60298014322917 8.61176475123355  C 8.52306681315104 1.37692583264803  5.28003653971354 1.00743873355263  5.28003653971354 1.00743873355263  C 3.90554996744792 1.00743873355263  4.19048038736979 2.11624002878289  4.08663907877604 2.30115357730263  C 4.08663907877604 5.83930818256579  0.40318302408854 8.61167408511513  0.40318302408854 8.61167408511513  L 0.40318302408854 18.6452627467105  C 0.40318302408854 19.6356767578125  1.72612662760416 19.9924026007401  2.24513321940104 19.9924026007401  L 9.69022623697917 19.9924026007401  C 10.390877360026 19.9924026007401  10.9614935709635 18.1176766036184  10.9614935709635 18.1176766036184  C 12.8033326822917 11.7277325760691  12.8033326822917 9.82650940583881  12.8033326822917 9.82650940583881  C 12.8033548990885 8.50625205592105  11.5581700846354 8.61178741776315  11.5581700846354 8.61178741776315  Z " fill-rule="nonzero" fill="#8a8a8a" stroke="none" transform="matrix(1 0 0 1 1085 496 )" />
  </g>
</svg>