<?xml version="1.0" encoding="utf-8"?>
<svg version="1.1" xmlns:xlink="http://www.w3.org/1999/xlink" width="3px" height="3px" xmlns="http://www.w3.org/2000/svg">
  <g transform="matrix(1 0 0 1 -808 -504 )">
    <path d="M 0.522402797851562 1.671823515625  C 0.428398527343751 1.91565719335937  0.380829774414062 2.17260398535156  0.380829774414062 2.43502805957031  C 0.380829774414062 2.58593675488281  0.503272770507813 2.70840669824219  0.654154465820312 2.70840669824219  C 0.805063161132813 2.70840669824219  0.927533104492188 2.58593672851563  0.927533104492188 2.43502805957031  C 0.927533104492188 2.23986937011719  0.962474426757812 2.04908172753906  1.03249193945312 1.86862807128906  C 1.26537105273438 1.26615355175782  1.85527208886719 0.861616823242191  2.50094434082031 0.861616823242191  C 2.65185303613281 0.861616823242191  2.77426903222656 0.739146853515628  2.77426903222656 0.588238184570315  C 2.77426903222656 0.437329489257817  2.65182603613281 0.314859545898441  2.50094434082031 0.314859545898441  C 1.63062243847656 0.314346862304687  0.835714383789062 0.859970930664064  0.522402797851562 1.671823515625  Z " fill-rule="nonzero" fill="#7f7f7f" stroke="none" transform="matrix(1 0 0 1 808 504 )" />
  </g>
</svg>