<?xml version="1.0" encoding="utf-8"?>
<svg version="1.1" xmlns:xlink="http://www.w3.org/1999/xlink" width="25px" height="15px" xmlns="http://www.w3.org/2000/svg">
  <g transform="matrix(1 0 0 1 -798 -499 )">
    <path d="M 24.2033691113281 6.74998951757813  C 21.0537675371094 2.84978385644531  17.2633504414063 0.61264962890625  12.4966272939453 0.61264962890625  C 7.73476085058594 0.61264962890625  3.94763551367188 2.84595244042969  0.797494308593751 6.74014118847656  C 0.718788675781251 6.83749119140625  0.675590969726563 6.95882792578125  0.675590969726563 7.0840230234375  L 0.675590969726563 7.78654570019531  C 0.675590969726563 7.91176779785156  0.718788675781251 8.03310453222656  0.797494308593751 8.13042753515625  C 3.94709585644531 12.0241036523438  7.73476082421875 14.2574064902344  12.4966272939453 14.2574064902344  C 17.2633774414063 14.2574064902344  21.05325490625 12.0202722626953  24.2033691113281 8.1200936015625  C 24.2820747441406 8.02277059863281  24.3247058457031 7.90140686425781  24.3247058457031 7.77675139746094  L 24.3247058457031 7.09449195703125  C 24.3247058457031 6.96867622851563  24.2820747441406 6.84785215136719  24.2033691113281 6.74998951757813  Z M 23.2313261591797 7.58097210351562  C 20.2954736708984 11.1313329638672  16.8708205917969 13.1634601728516  12.4966272939453 13.1634601728516  C 8.12731767382813 13.1634601728516  4.70482314453125 11.1346247226562  1.769564234375 7.59084740625  L 1.769564234375 7.27866905566406  C 4.70482311816406 3.73491871289063  8.12783033105469 1.70608326269531  12.4971399511719 1.70608326269531  C 16.8708205917969 1.70608326269531  20.2960403017578 3.73818349804688  23.2318658164062 7.28851738476563  L 23.2318658164062 7.58097210351563  Z " fill-rule="nonzero" fill="#7f7f7f" stroke="none" transform="matrix(1 0 0 1 798 499 )" />
  </g>
</svg>