<?xml version="1.0" encoding="utf-8"?>
<svg version="1.1" xmlns:xlink="http://www.w3.org/1999/xlink" width="9px" height="9px" xmlns="http://www.w3.org/2000/svg">
  <g transform="matrix(1 0 0 1 -806 -502 )">
    <path d="M 4.50040473632813 0.227554725585938  C 2.18073348632812 0.227554725585938  0.293498006835938 2.11476320507813  0.293498006835938 4.43502805957031  C 0.293498006835938 6.75472630957031  2.18073345996094 8.6419347890625  4.50040473632813 8.6419347890625  C 5.13790152539062 8.6419347890625  5.75076400488281 8.50308691992188  6.32094140917969 8.22916865039063  C 6.5932138125 8.09852321777344  6.70804795019531 7.77212551757813  6.57683591308593 7.49988011425781  C 6.44613653320312 7.2276077109375  6.11865954492187 7.11390680859375  5.84749340332031 7.24401258398438  C 5.42595819726562 7.44629444824219  4.97277345410156 7.54906775976562  4.5009443671875 7.54906775976562  C 2.78372063671875 7.54906775976562  1.38741735058594 6.15225179003906  1.38741735058594 4.43554074316406  C 1.38741735058594 2.7189106171875  2.78428726757812 1.32152804296875  4.5009443671875 1.32152804296875  C 6.21760146679688 1.32152804296875  7.61444441015625 2.71834401269531  7.61444441015625 4.43554074316406  C 7.61444441015625 4.72750977832031  7.57402580566406 5.01616008105469  7.49469959472656 5.29390976660156  C 7.41159594140625 5.58420593554687  7.57947611425781 5.88656295703125  7.86977228320312 5.97017926757812  C 8.15896221679687 6.05271631640625  8.46242547363281 5.88542972167969  8.54604178417969 5.59513355273437  C 8.65375274707031 5.21954820703125  8.7078780703125 4.82971651171875  8.7078780703125 4.43554076953125  C 8.7078780703125 2.11476317871094  6.8206156171875 0.227554725585938  4.50040473632813 0.227554725585938  Z " fill-rule="nonzero" fill="#7f7f7f" stroke="none" transform="matrix(1 0 0 1 806 502 )" />
  </g>
</svg>