<?xml version="1.0" encoding="utf-8"?>
<svg version="1.1" xmlns:xlink="http://www.w3.org/1999/xlink" width="131px" height="28px" xmlns="http://www.w3.org/2000/svg">
  <defs>
    <mask fill="white" id="clip156">
      <path d="M 0 24  L 0 4  C 0 1.75999999999999  1.75999999999999 0  4 0  L 72.2234432234419 0  L 131 0  L 131 28  L 4 28  C 1.75999999999999 28  0 26.24  0 24  Z " fill-rule="evenodd" />
    </mask>
  </defs>
  <g transform="matrix(1 0 0 1 -271 -345 )">
    <path d="M 0 24  L 0 4  C 0 1.75999999999999  1.75999999999999 0  4 0  L 72.2234432234419 0  L 131 0  L 131 28  L 4 28  C 1.75999999999999 28  0 26.24  0 24  Z " fill-rule="nonzero" fill="#ffffff" stroke="none" transform="matrix(1 0 0 1 271 345 )" />
    <path d="M 0 24  L 0 4  C 0 1.75999999999999  1.75999999999999 0  4 0  L 72.2234432234419 0  L 131 0  L 131 28  L 4 28  C 1.75999999999999 28  0 26.24  0 24  Z " stroke-width="2" stroke="#dadada" fill="none" transform="matrix(1 0 0 1 271 345 )" mask="url(#clip156)" />
  </g>
</svg>