<?xml version="1.0" encoding="utf-8"?>
<svg version="1.1" xmlns:xlink="http://www.w3.org/1999/xlink" width="3px" height="7px" xmlns="http://www.w3.org/2000/svg">
  <g transform="matrix(1 0 0 1 -755 -650 )">
    <path d="M 0.843418195312496 6.5536970078125  C 0.785455467773436 6.58534913203125  0.721931534179689 6.60041133007813  0.659289005859375 6.60041133007813  C 0.533647195312501 6.60041133007813  0.411363108398438 6.5399079484375  0.343369189453124 6.43135834414062  C 0.241483259765625 6.26869063242188  0.300138495117187 6.0597394921875  0.474446329101561 5.96464597695313  C 0.903626343749999 5.73044756757812  1.26342740332031 5.3950837390625  1.514878921875 4.99480953398438  C 1.77367545703125 4.58288121484375  1.91048170019531 4.11111547382813  1.91048170019531 3.6305357046875  C 1.91048170019531 3.15402997929688  1.77587895996094 2.68577026484375  1.52121661523438 2.2763490421875  C 1.273857328125 1.87866027617187  0.9193446796875 1.5439232265625  0.496082666015623 1.30833415507813  C 0.322677237304686 1.21183037773438  0.265931709960939 1.00240916289063  0.369328614257811 0.840564096093751  C 0.472725518554683 0.678719029296876  0.697126371093749 0.625756537109375  0.870510820312497 0.7222798953125  C 1.40023366699219 1.01709920976563  1.84389385839844 1.43601998203125  2.1534759609375 1.93375771367188  C 2.47279545996093 2.44710606054688  2.64158402636719 3.0338458609375  2.64158402636719 3.6305357046875  C 2.64158402636719 4.23235726484375  2.47004632617187 4.82344531757812  2.14556433398437 5.33994712070312  C 1.83084071777343 5.8408970703125  1.38056999707031 6.26060132578125  0.843418195312496 6.5536970078125  Z " fill-rule="nonzero" fill="#ffffff" stroke="none" transform="matrix(1 0 0 1 755 650 )" />
  </g>
</svg>