<?xml version="1.0" encoding="utf-8"?>
<svg version="1.1" xmlns:xlink="http://www.w3.org/1999/xlink" width="11px" height="16px" xmlns="http://www.w3.org/2000/svg">
  <g transform="matrix(1 0 0 1 -743 -646 )">
    <path d="M 10.0497808850098 15.2936030978261  C 9.93030013916016 15.3347327961957  9.80660650073242 15.3520372336957  9.68306674951172 15.3520372336957  C 9.07662166748047 15.3520372336957  8.47358152319336 14.935173423913  8.38843875439453 14.874033673913  L 7.74326968432617 14.4187068994565  C 7.59147085791016 14.3115906548913  7.5542473359375 14.1002389891304  7.66010831201172 13.9466401766304  C 7.76596928808594 13.7930608233696  7.97484417651367 13.7553959347826  8.12664300292969 13.8625121793478  L 8.77560176635742 14.3205251277174  C 8.94563722314453 14.4420065896739  9.50629836083984 14.7644453641304  9.83394221508789 14.6516258505435  C 9.9520379008789 14.610963326087  10.0635930043945 14.572578236413  10 13.9467569701087  L 10 1.63654468206522  C 10.0425285415039 1.04862191032609  9.91845016625977 0.991744989130435  9.77490398779297 0.925914135869565  C 9.46880552685547 0.78557102173913  8.94875361767578 1.11760607336957  8.79072202099609 1.24500493206522  L 8.78210386743164 1.25175930434783  L 4.78683789697266 4.27828470652174  C 3.88812572338867 5.01844374456522  2.66352026123047 4.98737751630435  2.5254566105957 4.9813044076087  C 1.67468293383789 4.98517795652174  0.954605139404297 5.63406530706522  0.847397584472657 6.49432380163044  L 0.824178569091798 6.72751525815217  L 0.824178569091798 8.84951863586956  L 0.847416815673829 9.08272957065217  C 0.954874451416016 9.94497349728261  1.67787627197266 10.5948730326087  2.53116998803711 10.595807361413  C 2.54292376733398 10.5956711086957  2.55465831542969 10.5956127119565  2.56635438232422 10.5956127119565  C 3.72334194482422 10.5956127119565  4.6915572397461 11.2379014211957  4.73262814868164 11.2655223369565  C 4.7948789453125 11.3077225978261  6.2421906652832 12.302192701087  6.99966510009766 13.9614336304348  C 7.07726698217773 14.1314220298913  7.00399341748047 14.3329048940217  6.83599706958008 14.4114269755435  C 6.66800072167969 14.4898906413043  6.46887898486328 14.4158066168478  6.39127708398437 14.2457987581522  C 5.72281205493164 12.781519888587  4.40508046923828 11.8602578967391  4.36129715258789 11.8300286440217  C 4.32971006445313 11.8092788940217  3.48472670874024 11.2626609728261  2.53709496508789 11.2738923206522  L 2.53313215332031 11.2739312581522  C 1.34020995410156 11.2739312581522  0.329404034179689 10.3661974891304  0.181914275146486 9.16247794565217  L 0.181048607910157 9.15475030706521  L 0.154039917968751 8.8835825  L 0.154039936767578 6.69343193478261  L 0.181914293945312 6.4145170298913  C 0.329404052978515 5.21085590217391  1.34020997290039 4.30316105163043  2.53313217211914 4.30316105163043  L 2.55181125170898 4.30368660326087  C 2.56183371533203 4.30419269565217  3.63929569287109 4.35269963315217  4.368107046875 3.7487960326087  L 4.37959151416016 3.73970584782609  L 8.37691582470703 0.71162325  C 8.41413932788086 0.682016883152174  8.62041723339844 0.522267105978261  8.89350508374024 0.393836622282609  C 9.32768321289062 0.189609168478261  9.72811972021484 0.159983342391305  10.0515122006836 0.308268203804348  C 10.2156419116211 0.383520144021739  10.3859659492188 0.48279195652174  10.519739744873 0.697783584239131  C 10.6514552004395 0.909446692934783  10.723632248291 1.19840555163044  10.7468512636719 1.60719136141304  L 10.7474091376953 1.62665642119565  L 10.7474091376953 13.9540758315217  L 10.7473321940918 13.9577157934783  C 10.7360208640137 14.4917787391304  10.671865614502 15.0794679429348  10.0497808850098 15.2936030978261  Z " fill-rule="nonzero" fill="#ffffff" stroke="none" transform="matrix(1 0 0 1 743 646 )" />
  </g>
</svg>