<?xml version="1.0" encoding="utf-8"?>
<svg version="1.1" xmlns:xlink="http://www.w3.org/1999/xlink" width="4px" height="11px" xmlns="http://www.w3.org/2000/svg">
  <g transform="matrix(1 0 0 1 -757 -648 )">
    <path d="M 1.13142222395833 10.6703458742676  C 1.07988116927083 10.7014520319824  1.0234341171875 10.7162260310059  0.967733203125 10.7162260310059  C 0.856051593750001 10.7162260310059  0.747354627604167 10.6568030668945  0.686915588541668 10.5501918483887  C 0.596350317708333 10.3904289172363  0.648506971354166 10.1851898161621  0.803428601562501 10.0917943994141  C 1.54705241927083 9.64349633886719  2.17041379427084 9.00150137573242  2.60611570572917 8.23523565014648  C 3.054763515625 7.44623183959961  3.29189341927083 6.54280661181641  3.29189341927083 5.62260675732422  C 3.29189341927083 4.71027481396484  3.058550296875 3.81354405566406  2.61708426822917 3.02938795532226  C 2.1884522109375 2.26802765234375  1.57426863802084 1.62720613085937  0.840867208333336 1.17621491259765  C 0.686729049479169 1.08143441699219  0.63628858072917 0.875752866699217  0.728196940104169 0.716797890380857  C 0.820105299479169 0.55786214526367  1.01957272395834 0.505787699462889  1.173692234375 0.600625907470701  C 2.00170684895833 1.10980893579101  2.69515134895833 1.83331089916992  3.17909257552083 2.69291432910156  C 3.67803163020833 3.5791609621582  3.94176215364583 4.59223684057617  3.94176215364583 5.62260673852539  C 3.94176215364583 6.66186412084961  3.67375986197917 7.6825193671875  3.1667249609375 8.574229296875  C 2.67478116666667 9.43937298583984  1.97098366666667 10.1641830656738  1.13142222395833 10.6703458742676  Z " fill-rule="nonzero" fill="#ffffff" stroke="none" transform="matrix(1 0 0 1 757 648 )" />
  </g>
</svg>