<?xml version="1.0" encoding="utf-8"?>
<svg version="1.1" xmlns:xlink="http://www.w3.org/1999/xlink" width="60px" height="60px" xmlns="http://www.w3.org/2000/svg">
  <g transform="matrix(1 0 0 1 -459 -342 )">
    <path d="M 59.3333333125 30  C 59.3333333125 13.733333375  46.2666666875 0.6666666875  30 0.6666666875  C 13.8666666875 0.6666666875  0.6666666875 13.7333333125  0.6666666875 30  C 0.6666666875 46.2666666875  13.8666666875 59.3333333125  30 59.3333333125  C 46.2666666875 59.3333333125  59.3333333125 46.266666625  59.3333333125 30  Z M 56.6666666875 30  C 56.6666666875 44.6666666875  44.6666666875 56.6666666875  30 56.6666666875  C 15.3333333125 56.6666666875  3.3333333125 44.6666666875  3.3333333125 30  C 3.3333333125 15.3333333125  15.3333333125 3.3333333125  30 3.3333333125  C 44.6666666875 3.3333333125  56.6666666875 15.3333333125  56.6666666875 30  Z M 43.3333333125 29.9999999375  C 43.3333333125 29.5999999375  43.0666666875 29.2  42.8 28.9333333125  L 42.5333333125 28.8  C 42.5333333125 28.8  42.5333333125 28.8  42.4 28.8  L 24.1333333125 18.2666666875  C 23.8666666875 18.1333333125  23.6 18  23.3333333125 18  C 22.5333333125 18  22 18.5333333125  22 19.3333333125  L 22 40.666666625  C 22 41.466666625  22.5333333125 41.9999999375  23.3333333125 41.9999999375  C 23.6 41.9999999375  23.866666625 41.866666625  24.1333333125 41.73333325  L 42.4 31.1999999375  C 42.4 31.1999999375  42.4 31.1999999375  42.5333333125 31.1999999375  L 42.8 31.066666625  C 43.0666666875 30.7999999375  43.3333333125 30.3999999375  43.3333333125 29.9999999375  Z M 39.3333333125 30  L 25 38.4  L 25 21.6  L 39.3333333125 30  Z " fill-rule="nonzero" fill="#555555" stroke="none" transform="matrix(1 0 0 1 459 342 )" />
  </g>
</svg>