<?xml version="1.0" encoding="utf-8"?>
<svg version="1.1" xmlns:xlink="http://www.w3.org/1999/xlink" width="23px" height="23px" xmlns="http://www.w3.org/2000/svg">
  <g transform="matrix(1 0 0 1 -837 -644 )">
    <path d="M 3.083482421875 1.806263671875  L 8.984375 1.806263671875  L 8.984375 0  L 0 0  L 0 8.984375  L 1.806263671875 8.984375  L 1.806263671875 3.083482421875  L 8.6218779296875 9.8990966796875  L 9.89907421875 8.62185546875  L 3.083482421875 1.806263671875  Z M 23 0  L 21.193736328125 0  L 14.015625 0  L 14.015625 1.806263671875  L 19.9164951171875 1.806263671875  L 13.1009033203125 8.62185546875  L 14.3781220703125 9.8990966796875  L 21.193736328125 3.083482421875  L 21.193736328125 8.984375  L 23 8.984375  L 23 0  Z M 9.89907421875 14.37814453125  L 8.6218779296875 13.1009033203125  L 1.806263671875 19.9164951171875  L 1.806263671875 14.015625  L 0 14.015625  L 0 23  L 8.984375 23  L 8.984375 21.193736328125  L 3.083482421875 21.193736328125  L 9.89907421875 14.37814453125  Z M 21.193736328125 14.015625  L 21.193736328125 19.9164951171875  L 14.3781220703125 13.1009033203125  L 13.1009033203125 14.37814453125  L 19.9164951171875 21.193736328125  L 14.015625 21.193736328125  L 14.015625 23  L 23 23  L 23 14.015625  L 21.193736328125 14.015625  Z " fill-rule="nonzero" fill="#ffffff" stroke="none" transform="matrix(1 0 0 1 837 644 )" />
  </g>
</svg>