<?xml version="1.0" encoding="utf-8"?>
<svg version="1.1" xmlns:xlink="http://www.w3.org/1999/xlink" width="21px" height="21px" xmlns="http://www.w3.org/2000/svg">
  <g transform="matrix(1 0 0 1 -617 -709 )">
    <path d="M 0.980130359738372 8.15533702761628  L 9.61907022165698 15.6062545421512  C 9.89029796511628 15.8393759084302  10.224289153343 15.9559365915698  10.5605218931686 15.9559365915698  C 10.898996184593 15.9559365915698  11.2374704760174 15.8371343568314  11.5086982194767 15.5995298873547  L 20.0265942950581 8.14861237281977  C 20.6250885719477 7.62408929869186  20.6856104651163 6.71401934956395  20.1633289425872 6.11776662427326  C 19.6388058684593 5.51927234738372  18.7287359193314 5.45650890261628  18.1324831940407 5.98103197674418  L 11.9995980196221 11.3428234011628  L 11.9995980196221 1.85657703488372  C 11.9995980196221 1.06082621729651  11.354031159157 0.417500908430233  10.5605218931686 0.417500908430233  C 9.76701262718023 0.417500908430233  9.12144576671512 1.06306776889535  9.12144576671512 1.85657703488372  L 9.12144576671512 11.3697220203488  L 2.86079215116279 5.97430732194767  C 2.26005632267442 5.45426735101744  1.34998637354651 5.52375545058139  0.829946402616279 6.12449127906977  C 0.309906431686046 6.72746865915698  0.377152979651163 7.63529705668605  0.980130359738372 8.15533702761628  Z M 20.5174940952035 19.1972202034884  C 20.5174940952035 18.4037109375  19.8741687863372 17.7581440770349  19.07841796875 17.7581440770349  L 1.92158203125 17.7581440770349  C 1.12583121366279 17.7581440770349  0.480264353197674 18.4014693859012  0.480264353197674 19.1972202034884  C 0.480264353197674 19.9929710210756  1.12583121366279 20.6362963299419  1.91934047965116 20.6362963299419  L 19.07841796875 20.6362963299419  C 19.8741687863372 20.6362963299419  20.5174940952035 19.9907294694767  20.5174940952035 19.1972202034884  Z " fill-rule="nonzero" fill="#707070" stroke="none" transform="matrix(1 0 0 1 617 709 )" />
  </g>
</svg>