<?xml version="1.0" encoding="utf-8"?>
<svg version="1.1" xmlns:xlink="http://www.w3.org/1999/xlink" width="21px" height="21px" xmlns="http://www.w3.org/2000/svg">
  <g transform="matrix(1 0 0 1 -709 -710 )">
    <path d="M 7.25454546386718 6.63409090722656  L 10.3568181855469 1.86136362890625  L 13.7931818144531 6.63409090722656  L 19.3295454638672 8.87727272167969  L 15.5113636289062 13.1727272783203  L 15.7022727216797 19.1386363710937  L 10.4522727216797 16.9909090927734  L 4.86818181445312 19.1386363710937  L 5.25 13.1727272783203  L 1.71818181445312 8.78181818554687  L 7.25454546386718 6.63409090722656  Z M 11.5022727216797 1.00227272167969  C 11.2636363505859 0.668181814453124  10.8340909072266 0.429545443359374  10.3568181855469 0.429545463867187  C 9.87954546386719 0.429545463867187  9.40227272167968 0.668181834960937  9.16363637109375 1.05  L 6.25227272167969 5.44090909277344  L 1.14545453613281 7.44545453613281  C 0.715909072265623 7.58863635058594  0.38181816503906 7.97045453613281  0.286363628906248 8.4  C 0.190909092773435 8.82954546386719  0.286363628906248 9.30681818554688  0.57272727832031 9.68863637109375  L 3.77045453613281 13.65  L 3.43636362890625 19.0431818144531  C 3.38863635058593 19.5204545361328  3.62727272167968 19.9977272783203  4.00909090722656 20.2840909072266  C 4.24772727832031 20.475  4.53409090722656 20.5704545361328  4.86818181445312 20.5704545361328  C 5.05909090722656 20.5704545361328  5.20227272167968 20.5227272578125  5.39318181445312 20.475  L 10.4522727216797 18.5181818144531  L 15.1772727216797 20.475  C 15.3681818144531 20.5704545361328  15.5590909072266 20.5704545361328  15.7022727216797 20.5704545361328  C 15.9886363505859 20.5704545361328  16.275 20.475  16.5136363710937 20.3318181855469  C 16.8954545566406 20.0454545566406  17.1340909072266 19.6159090927734  17.1340909072266 19.0909090927734  L 16.9431818144531 13.6977272783203  L 20.3795454638672 9.83181818554688  C 20.6659090927734 9.49772727832031  20.8090909277344 9.02045455664063  20.7136363710937 8.54318181445312  C 20.6181818349609 8.11363635058594  20.2840909072266 7.73181818554688  19.8545454638672 7.54090909277344  L 14.7 5.44090909277344  L 11.5022727216797 1.00227272167969  Z " fill-rule="nonzero" fill="#999999" stroke="none" transform="matrix(1 0 0 1 709 710 )" />
  </g>
</svg>