<?xml version="1.0" encoding="utf-8"?>
<svg version="1.1" xmlns:xlink="http://www.w3.org/1999/xlink" width="19px" height="17px" xmlns="http://www.w3.org/2000/svg">
  <g transform="matrix(1 0 0 1 -806 -713 )">
    <path d="M 18.5890625 8.2703125  C 18.5890625 7.1875  17.703125 6.334375  16.6203125 6.334375  L 11.6328125 6.334375  C 11.6 6.334375  11.5671875 6.3015625  11.5671875 6.2359375  L 12.453125 3.11875  C 12.6171875 2.528125  12.5515625 1.9046875  12.25625 1.3796875  C 11.9609375 0.854687499999998  11.46875 0.428124999999999  10.878125 0.264062499999999  C 10.2875 0.0999999999999988  9.6640625 0.165624999999999  9.1390625 0.460937499999999  C 8.6140625 0.756249999999998  8.2203125 1.2484375  8.05625 1.8390625  L 7.596875 3.446875  C 7.1046875 5.1203125  5.5625 6.3015625  3.8234375 6.3015625  L 2.4125 6.3015625  C 1.3296875 6.3015625  0.443749999999998 7.1875  0.443749999999998 8.2703125  L 0.443749999999998 14.8328125  C 0.443749999999998 15.915625  1.3296875 16.8015625  2.4125 16.8015625  L 14.9796875 16.8015625  C 15.8984375 16.8015625  16.6859375 16.178125  16.8828125 15.325  L 18.5234375 8.7625  C 18.55625 8.5984375  18.5890625 8.434375  18.5890625 8.2703125  Z M 4.0203125 15.521875  L 2.3796875 15.521875  C 2.01875 15.521875  1.7234375 15.2265625  1.7234375 14.865625  L 1.7234375 8.303125  C 1.7234375 7.9421875  2.01875 7.646875  2.3796875 7.646875  L 4.0203125 7.646875  L 4.0203125 15.521875  Z M 17.24375 8.303125  C 17.2765625 8.3359375  17.24375 8.4015625  17.24375 8.434375  L 15.603125 14.996875  C 15.5375 15.2921875  15.275 15.4890625  14.9796875 15.4890625  L 5.3328125 15.4890625  L 5.3328125 7.384375  C 6.9734375 6.859375  8.31875 5.546875  8.8109375 3.8078125  L 9.2703125 2.2  C 9.3359375 1.9375  9.5 1.740625  9.7296875 1.609375  C 9.959375 1.478125  10.221875 1.4453125  10.484375 1.5109375  C 10.746875 1.5765625  10.94375 1.740625  11.075 1.9703125  C 11.20625 2.2  11.2390625 2.4625  11.1734375 2.725  L 10.2875 5.875  C 10.2546875 6.00625  10.221875 6.1375  10.221875 6.26875  C 10.221875 7.0234375  10.8453125 7.646875  11.6 7.646875  L 16.5875 7.646875  C 16.9484375 7.646875  17.24375 7.9421875  17.24375 8.303125  Z " fill-rule="nonzero" fill="#8a8a8a" stroke="none" transform="matrix(1 0 0 1 806 713 )" />
  </g>
</svg>