<?xml version="1.0" encoding="utf-8"?>
<svg version="1.1" xmlns:xlink="http://www.w3.org/1999/xlink" width="16px" height="16px" xmlns="http://www.w3.org/2000/svg">
  <g transform="matrix(1 0 0 1 -1224 -277 )">
    <path d="M 5.37166666601563 1.78166666796875  C 6.2049999921875 1.42833333007813  7.088333328125 1.25  8 1.25  C 8.911666671875 1.25  9.7950000078125 1.42833333007813  10.6266666640625 1.77999999804688  C 11.4300000019531 2.11999999414062  12.151666671875 2.60666666210938  12.7716666699219 3.22666666015625  C 13.3916666679687 3.84666665820313  13.8783333359375 4.568333328125  14.2183333320312 5.37166666601563  C 14.5716666699219 6.2049999921875  14.75 7.088333328125  14.75 8  C 14.75 8.911666671875  14.5716666699219 9.7950000078125  14.2200000019531 10.6266666640625  C 13.8800000058594 11.4300000019531  13.3933333378906 12.151666671875  12.7733333398437 12.7716666699219  C 12.1533333417969 13.3916666679687  11.431666671875 13.8783333359375  10.6283333339844 14.2183333320312  C 9.7950000078125 14.5716666699219  8.911666671875 14.75  8 14.75  C 7.088333328125 14.75  6.2049999921875 14.5716666699219  5.3733333359375 14.2200000019531  C 4.56999999804688 13.8800000058594  3.848333328125 13.3933333378906  3.22833333007813 12.7733333398437  C 2.60833333203125 12.1533333417969  2.1216666640625 11.431666671875  1.78166666796875 10.6283333339844  C 1.42833333007813 9.7950000078125  1.25 8.911666671875  1.25 8  C 1.25 7.088333328125  1.42833333007813 6.2049999921875  1.77999999804688 5.3733333359375  C 2.11999999414062 4.56999999804688  2.60666666210938 3.848333328125  3.22666666015625 3.22833333007813  C 3.84666665820313 2.60833333203125  4.568333328125 2.1216666640625  5.37166666601563 1.78166666796875  Z M 15.5000000058594 8  C 15.5000000058594 3.85833333007812  12.1416666699219 0.499999994140625  8 0.499999994140626  C 3.85833333007812 0.499999994140625  0.499999994140625 3.85833333007812  0.499999994140625 8  C 0.499999994140625 12.1416666699219  3.85833333007812 15.5000000058594  8 15.5000000058594  C 12.1416666699219 15.5000000058594  15.5000000058594 12.1416666699219  15.5000000058594 8  Z " fill-rule="nonzero" fill="#108ee9" stroke="none" transform="matrix(1 0 0 1 1224 277 )" />
  </g>
</svg>