<?xml version="1.0" encoding="utf-8"?>
<svg version="1.1" xmlns:xlink="http://www.w3.org/1999/xlink" width="6px" height="8px" xmlns="http://www.w3.org/2000/svg">
  <g transform="matrix(1 0 0 1 -1229 -281 )">
    <path d="M 1.52333333203125 7.33333333984375  C 1.52333333203125 7.54000000585937  1.35500000390625 7.70833333398437  1.14833333789062 7.70833333398437  C 0.941666671874999 7.70833333398437  0.77333334375 7.54000000585937  0.773333326171874 7.33333333984375  L 0.773333326171874 0.66666666015625  C 0.773333326171874 0.459999994140624  0.941666654296875 0.291666666015625  1.14833333789062 0.291666666015625  C 1.35500002148437 0.291666666015625  1.52333333203125 0.459999994140626  1.52333333203125 0.66666666015625  L 1.52333333203125 7.33333333984375  Z M 5.22666667382813 7.33333333984375  C 5.22666667382813 7.54000000585937  5.05833334570313 7.70833333398437  4.85166666210938 7.70833333398437  C 4.64499999609375 7.70833333398437  4.47666666796875 7.54000000585937  4.47666666796875 7.33333333984375  L 4.47666666796875 0.66666666015625  C 4.47666666796875 0.459999994140624  4.64499999609375 0.291666666015625  4.85166666210938 0.291666666015625  C 5.058333328125 0.291666666015625  5.22666665625 0.459999994140626  5.22666667382813 0.66666666015625  L 5.22666667382813 7.33333333984375  Z " fill-rule="nonzero" fill="#108ee9" stroke="none" transform="matrix(1 0 0 1 1229 281 )" />
  </g>
</svg>