<?xml version="1.0" encoding="utf-8"?>
<svg version="1.1" xmlns:xlink="http://www.w3.org/1999/xlink" width="42px" height="42px" xmlns="http://www.w3.org/2000/svg">
  <g transform="matrix(1 0 0 1 -1046 -379 )">
    <path d="M 41.53333331875 21  C 41.53333331875 9.6133333625  32.38666668125 0.46666668125  21 0.46666668125  C 9.70666668125 0.46666668125  0.46666668125 9.61333331875  0.46666668125 21  C 0.46666668125 32.38666668125  9.70666668125 41.53333331875  21 41.53333331875  C 32.38666668125 41.53333331875  41.53333331875 32.3866666375  41.53333331875 21  Z M 39.66666668125 21  C 39.66666668125 31.26666668125  31.26666668125 39.66666668125  21 39.66666668125  C 10.73333331875 39.66666668125  2.33333331875 31.26666668125  2.33333331875 21  C 2.33333331875 10.73333331875  10.73333331875 2.33333331875  21 2.33333331875  C 31.26666668125 2.33333331875  39.66666668125 10.73333331875  39.66666668125 21  Z M 30.33333331875 20.99999995625  C 30.33333331875 20.71999995625  30.14666668125 20.44  29.96 20.25333331875  L 29.77333331875 20.16  C 29.77333331875 20.16  29.77333331875 20.16  29.68 20.16  L 16.89333331875 12.78666668125  C 16.70666668125 12.69333331875  16.52 12.6  16.33333331875 12.6  C 15.77333331875 12.6  15.4 12.97333331875  16 13.53333331875  L 16 28.4666666375  C 15.4 29.0266666375  15.77333331875 29.39999995625  16.33333331875 29.39999995625  C 16.52 29.39999995625  16.7066666375 29.3066666375  16.89333331875 29.213333275  L 29.68 21.83999995625  C 29.68 21.83999995625  29.68 21.83999995625  29.77333331875 21.83999995625  L 29.96 21.7466666375  C 30.14666668125 21.55999995625  30.33333331875 21.27999995625  30.33333331875 20.99999995625  Z M 27.53333331875 21  L 18 26.88  L 18 15.12  L 27.53333331875 21  Z " fill-rule="nonzero" fill="#d7d7d7" stroke="none" transform="matrix(1 0 0 1 1046 379 )" />
  </g>
</svg>