<?xml version="1.0" encoding="utf-8"?>
<svg version="1.1" xmlns:xlink="http://www.w3.org/1999/xlink" width="28px" height="21px" xmlns="http://www.w3.org/2000/svg">
  <g transform="matrix(1 0 0 1 -45 -710 )">
    <path d="M 27.4906738873488 10.4888955723505  C 27.4906738873488 10.4888955723505  23.6319736838458 0.744616875636889  13.9963755065524 0.744616875636889  C 4.357431640625 0.744616875636889  0.502077125756047 10.4888955723505  0.502077125756047 10.4888955723505  C 0.502077125756047 10.4888955723505  4.35687400012601 20.2326105672554  13.9963755065524 20.2326105672554  C 23.6358770129788 20.2326105672554  27.4906738873488 10.4888955723505  27.4906738873488 10.4888955723505  Z M 19.7805224981099 10.4849498469344  C 19.7771768094758 13.7176355725628  17.1870521837198 16.3319680014436  13.9963755065524 16.3319679702361  C 10.802353140751 16.3319679702361  8.21222851499496 13.7136898159392  8.21222851499496 10.4849498469344  C 8.21222851499496 7.25620987792969  10.802353140751 4.63793169242527  13.9963755065524 4.63793169242527  C 17.1903978723538 4.63793169242527  19.7805224981099 7.25620984672215  19.7805224981099 10.4849498469344  Z " fill-rule="nonzero" fill="#8a8a8a" stroke="none" transform="matrix(1 0 0 1 45 710 )" />
  </g>
</svg>