<?xml version="1.0" encoding="utf-8"?>
<svg version="1.1" xmlns:xlink="http://www.w3.org/1999/xlink" width="28px" height="23px" xmlns="http://www.w3.org/2000/svg">
  <g transform="matrix(1 0 0 1 -1046 -915 )">
    <path d="M 4.74133332421875 8.57869085127898  L 4.74366667578125 8.57869085127898  C 4.43209817914663 9.52316070411121  4.27342638900402 10.5096679965324  4.27342638900402 11.5023074039066  C 4.27342638900402 16.7417499793349  8.59990281959507 20.9921495113553  13.944 21.0028333422694  C 16.5399195898692 21.0089135704094  19.0272383651033 19.9819591392252  20.8366666757812 18.1570161290323  C 21.0048252771455 17.9882278577958  21.2353120697189 17.8930667487452  21.4759703437505 17.8930667487452  C 21.71092427212 17.8930667487452  21.9364266675064 17.9837823980172  22.1036666757812 18.1455779480532  C 22.456 18.4887231093435  22.4606666757813 19.0469058961064  22.1153333242187 19.3923387096774  C 19.9643626332243 21.5513121612796  17.015298244325 22.7672280970661  13.937 22.7643118190209  C 10.8962909257503 22.7660535011475  7.98044129700338 21.5787534119018  5.83566667578125 19.4655430196888  C 3.68293906541537 17.3525762006357  2.47649142148952 14.4864829680996  2.48266667578125 11.5  C 2.48266667578125 10.4888656003339  2.618 9.49145698031124  2.884 8.52607527775328  L 1.78033332421875 9.27641935483871  C 1.43973825777385 9.50457814099343  0.975213382572557 9.42084492132208  0.73966667578125 9.08883334226941  C 0.653434891852221 8.9659836127752  0.607266524092165 8.82036642686041  0.607266524092165 8.6712370866717  C 0.607266524092165 8.42850896310167  0.729232247072144 8.20136105964821  0.93333332421875 8.0639731093435  L 3.84766667578125 6.08974463259198  C 4.02741044928646 5.96800540184121  4.25251876958354 5.92955017647566  4.46366667578125 5.98451343192414  C 4.66252746665659 6.01761144809799  4.83927026055466 6.12818138636276  4.95366667578125 6.2910564516129  L 6.965 9.15975  C 7.04967326599059 9.2818855431608  7.09494777555316 9.42615352845705  7.09494777555316 9.57383076981763  C 7.09494777555316 9.97859332060472  6.7618376829483 10.3075287831332  6.349 10.3104301164629  C 6.10231085587325 10.3099951590059  5.87176246734682 10.1901291496521  5.733 9.99016129032258  L 4.74133332421875 8.57869085127898  Z M 23.2493333242188 14.2245725806452  L 23.2516666757813 14.2245725806452  C 23.5176666757813 13.3438333422694  23.6506666757812 12.4287795609564  23.6483333242188 11.5091505286983  C 23.6496385339388 6.27106262747364  19.3263746494633 2.02019112125708  13.9836666757813 2.00631721323715  C 11.3858395715396 1.99985935363269  8.89665004588143 3.02771640666124  7.08633332421875 4.85442205194682  C 6.91817472382318 5.02321031485666  6.68768793712862 5.11837141858296  6.44702966984953 5.11837141858296  C 6.2120757348635 5.11837141858296  5.98657333367494 5.02765576421552  5.81933332421875 4.86586020611769  C 5.4657323400868 4.52440992581874  5.46051496089718 3.96685275358376  5.80766667578125 3.61909947130166  C 7.95835422393863 1.45805753248399  10.9087240831908 0.241125260802328  13.9883333242188 0.244838709677419  C 17.0286666484375 0.244838709677419  19.943 1.43212096774193  22.0896666757812 3.54360753581779  C 24.2436866786976 5.65591354017654  25.4510717572339 8.5222391247688  25.445 11.5091505286983  C 25.445 12.465381702558  25.3236666757813 13.4170376254725  25.081 14.3412419354839  L 26.236 13.5565833422694  C 26.3608803505402 13.4718067686744  26.5091629555895 13.4263877040662  26.6610582561615 13.4263877040662  C 26.9071353663347 13.4263877040662  27.1374122361137 13.5452583391662  27.2766666757813 13.7441693548387  C 27.51 14.0781639874307  27.426 14.5379785035597  27.0853333242187 14.7690295609564  L 24.1686666757813 16.7455456899887  C 23.9886218423245 16.8623720624974  23.7668198481896 16.8997217085739  23.5573333242187 16.8484892383758  C 23.3559191933386 16.817139328502  23.1763490192856 16.7063828323525  23.0603333242187 16.5419462454952  L 21.0466666757813 13.6732526971081  C 20.9601504533109 13.5505516024987  20.9138075223625 13.4049247342272  20.9138075223625 13.2557594130702  C 20.9138075223625 12.8502760603468  21.2490831855769 12.5215668559741  21.6626666757812 12.5215668559741  C 21.9085836079841 12.5215668559741  22.138827792053 12.6399405016243  22.2786666757813 12.8382661290323  L 23.2493333242188 14.2245725806452  Z " fill-rule="nonzero" fill="#666666" stroke="none" transform="matrix(1 0 0 1 1046 915 )" />
  </g>
</svg>