<?xml version="1.0" encoding="utf-8"?>
<svg version="1.1" xmlns:xlink="http://www.w3.org/1999/xlink" width="13px" height="18px" xmlns="http://www.w3.org/2000/svg">
  <g transform="matrix(1 0 0 1 -547 -715 )">
    <path d="M 12.9567724609375 11.7919471153846  C 12.75244140625 11.9220252403846  12.541064453125 12.0420973557692  12.324990234375 12.1496619591346  C 12.0877783203125 12.2672325721154  11.8435205078125 12.3697941706731  11.5945654296875 12.4573467548077  L 11.5945654296875 15.5391977163462  C 11.5945654296875 15.8418795072115  11.36205078125 16.0895282451923  11.0778662109375 16.0895282451923  L 2.3879248046875 16.0895282451923  C 2.103740234375 16.0895282451923  1.8712255859375 15.8418795072115  2 15.5391977163462  L 2 2.08861929086538  C 1.8712255859375 1.7859375  2.103740234375 1.53828876201923  2.3879248046875 1.53828876201923  L 7.4374853515625 1.53828876201923  L 7.4374853515625 5.97595402644231  L 11.5945654296875 5.97595402644231  L 11.5945654296875 9.79824969951923  C 12.1253564453125 9.49306640625  12.588037109375 9.07281400240384  12.9567724609375 8.57501502403846  L 12.9567724609375 4.50757211538462  L 8.80673828125 0.0874173677884623  L 2.3879248046875 0.0874173677884623  C 1.352177734375 0.0874173677884623  0.5090185546875 0.985456730769231  0.5090185546875 2.08861929086538  L 0.5090185546875 15.5391977163462  C 0.5090185546875 16.6423602764423  1.352177734375 17.5403996394231  2.3879248046875 17.5403996394231  L 11.0778662109375 17.5403996394231  C 12.11361328125 17.5403996394231  12.9567724609375 16.6423602764423  12.9567724609375 15.5391977163462  L 12.9567724609375 11.7919471153846  Z M 8.7996923828125 4.52258112980769  L 8.7996923828125 2.13114483173077  L 11.0449853515625 4.52258112980769  L 8.7996923828125 4.52258112980769  Z " fill-rule="nonzero" fill="#6a6a6a" stroke="none" transform="matrix(1 0 0 1 547 715 )" />
  </g>
</svg>