<?xml version="1.0" encoding="utf-8"?>
<svg version="1.1" xmlns:xlink="http://www.w3.org/1999/xlink" width="13px" height="18px" xmlns="http://www.w3.org/2000/svg">
  <g transform="matrix(1 0 0 1 -555 -711 )">
    <path d="M 12.5614404296875 4.93979116586539  L 8.41140625 0.519636418269231  L 1.9925927734375 0.519636418269231  C 1.135341796875 0.519636418269231  0.411962890625 1.13500600961538  0.186494140625 1.9705078125  L 7.0421533203125 1.9705078125  L 7.0421533203125 6.40817307692308  L 11.1992333984375 6.40817307692308  L 11.1992333984375 15.9714167668269  C 11.1992333984375 16.2740985576923  10.96671875 16.5217472956731  10.6825341796875 16.5217472956731  L 7.2864111328125 16.5217472956731  L 7.2864111328125 17.9726186899038  L 10.6825341796875 17.9726186899038  C 11.71828125 17.9726186899038  12.5614404296875 17.0745793269231  12.5614404296875 15.9714167668269  L 12.5614404296875 4.93979116586539  Z M 10.652001953125 4.95730168269231  L 8.406708984375 4.95730168269231  L 8.406708984375 2.56586538461538  L 10.652001953125 4.95730168269231  Z " fill-rule="nonzero" fill="#6a6a6a" stroke="none" transform="matrix(1 0 0 1 555 711 )" />
  </g>
</svg>