<?xml version="1.0" encoding="utf-8"?>
<svg version="1.1" xmlns:xlink="http://www.w3.org/1999/xlink" width="19px" height="19px" xmlns="http://www.w3.org/2000/svg">
  <g transform="matrix(1 0 0 1 -640 -26 )">
    <path d="M 3.5684375 0.7349140625  L 9.49933203125 6.66580859375  L 15.4302265625 0.7349140625  C 16.21175 -0.0472773437499999  17.4822265625 -0.0472773437499999  18.26375 0.7349140625  C 19.04594140625 1.51710546875  19.04594140625 2.7869140625  18.26375 3.56910546875  L 12.3335234375 9.5  L 18.26375 15.4302265625  C 19.04594140625 16.21241796875  19.04594140625 17.4822265625  18.26375 18.26441796875  C 17.4822265625 19.046609375  16.21175 19.046609375  15.4302265625 18.26441796875  L 9.49933203125 12.3335234375  L 3.5684375 18.26441796875  C 2.7869140625 19.046609375  1.5164375 19.046609375  0.7349140625 18.26441796875  C -0.0472773437499999 17.4822265625  -0.0472773437499999 16.21241796875  0.7349140625 15.4302265625  L 6.66580859375 9.5  L 0.7349140625 3.56910546875  C -0.0472773437499999 2.7869140625  -0.0472773437499999 1.51710546875  0.7349140625 0.7349140625  C 1.5164375 -0.0472773437499999  2.7869140625 -0.0472773437499999  3.5684375 0.7349140625  Z " fill-rule="nonzero" fill="#7f7f7f" stroke="none" transform="matrix(1 0 0 1 640 26 )" />
  </g>
</svg>