<?xml version="1.0" encoding="utf-8"?>
<svg version="1.1" xmlns:xlink="http://www.w3.org/1999/xlink" width="20px" height="22px" xmlns="http://www.w3.org/2000/svg">
  <g transform="matrix(1 0 0 1 -528 -318 )">
    <path d="M 9.67 1.67  C 9.79 1.58  9.88 1.55  9.97 1.55  C 10.03 1.55  10.15 1.58  10.24 1.64  C 11.35 2.51  12.58 3.23  13.87 3.77  L 13.93 3.8  L 13.99 3.83  C 15.28 4.22  16.6 4.52  17.92 4.73  C 18.07 4.76  18.22 4.91  18.25 5.06  C 18.25 5.09  18.34 7.4  18.13 11.18  C 17.35 17.36  12.49 20.45  10 20.45  C 9.43 20.45  8.62 20.18  7.75 19.7  C 6.79 19.16  5.83 18.44  4.93 17.57  C 2.92 15.56  1.75 13.25  1.75 11.21  C 1.75 8.48  1.78 5.36  1.78 5.06  C 1.78 4.91  1.9 4.79  2.02 4.76  C 3.37 4.64  4.69 4.31  5.95 3.8  C 7.33 3.38  8.62 2.63  9.67 1.67  Z M 10.87 0.8  C 10.6 0.59  10.27 0.5  9.97 0.500000000000001  C 9.64 0.500000000000001  9.34 0.590000000000001  9.07 0.800000000000001  C 8.08 1.7  6.91 2.39  5.62 2.78  C 4.42 3.26  3.19 3.59  1.9 3.71  C 1.24 3.8  0.760000000000003 4.34  0.730000000000003 5  C 0.730000000000003 5  0.700000000000003 8.3  0.700000000000003 11.18  C 0.7 16.43  6.88 21.5  9.97 21.5  C 13.06 21.5  18.31 17.93  19.15 11.27  C 19.36 7.34  19.27 5  19.27 5  L 19.27 4.97  C 19.21 4.31  18.73 3.8  18.1 3.65  C 16.81 3.44  15.55 3.17  14.29 2.78  C 13.06 2.27  11.92 1.61  10.87 0.8  Z " fill-rule="nonzero" fill="#515151" stroke="none" transform="matrix(1 0 0 1 528 318 )" />
  </g>
</svg>