<?xml version="1.0" encoding="utf-8"?>
<svg version="1.1" xmlns:xlink="http://www.w3.org/1999/xlink" width="13px" height="9px" xmlns="http://www.w3.org/2000/svg">
  <g transform="matrix(1 0 0 1 -532 -325 )">
    <path d="M 11.97 0.82  C 11.79 0.609999999999999  11.55 0.52  11.31 0.52  C 11.1 0.52  10.89 0.609999999999999  10.71 0.76  L 4.89 6.25  L 1.95 3.16  C 1.77 2.98  1.53 2.86  1.29 2.86  C 1.08 2.86  0.869999999999999 2.95  0.689999999999999 3.1  C 0.329999999999998 3.43  0.299999999999999 4  0.629999999999999 4.36  L 4.2 8.08  L 4.38 8.23  C 4.53 8.32  4.68 8.38  4.86 8.38  C 5.07 8.38  5.31 8.29  5.46 8.14  L 11.91 2.05  L 11.91 2.08  C 12.27 1.75  12.3 1.18  11.97 0.82  Z " fill-rule="nonzero" fill="#515151" stroke="none" transform="matrix(1 0 0 1 532 325 )" />
  </g>
</svg>