<?xml version="1.0" encoding="utf-8"?>
<svg version="1.1" xmlns:xlink="http://www.w3.org/1999/xlink" width="20px" height="22px" xmlns="http://www.w3.org/2000/svg">
  <g transform="matrix(1 0 0 1 -528 -386 )">
    <path d="M 19.5454545454545 10.26953125  C 19.5454545454545 9.156640625  18.6463068181818 8.25  17.5426136363636 8.25  L 16.8181818181818 8.25  L 16.8181818181818 6.875  C 16.8181818181818 5.951171875  16.6370738636364 5.0509765625  16.2791193181818 4.2044921875  C 15.9360795454545 3.3859375  15.4417613636364 2.651171875  14.8153409090909 2.01953125  C 14.1889204545455 1.387890625  13.4602272727273 0.8916015625  12.6484375 0.5435546875  C 11.8089488636364 0.1826171875  10.9161931818182 0  10 0  C 9.08380681818182 0  8.19105113636364 0.1826171875  7.3515625 0.5435546875  C 6.53977272727273 0.889453125  5.81107954545455 1.387890625  5.18465909090909 2.01953125  C 4.55823863636364 2.651171875  4.06605113636364 3.3859375  3.72088068181818 4.2044921875  C 3.36292613636364 5.0509765625  3.18181818181818 5.951171875  3.18181818181818 6.875  L 3.18181818181818 8.25  L 2.45738636363636 8.25  C 1.35369318181818 8.25  0.454545454545455 9.156640625  0.454545454545455 10.26953125  L 0.454545454545455 19.98046875  C 0.454545454545455 21.093359375  1.35369318181818 22  2.45738636363636 22  L 17.5426136363636 22  C 18.6463068181818 22  19.5454545454545 21.093359375  19.5454545454545 19.98046875  L 19.5454545454545 10.26953125  Z M 4.46022727272727 8.25  L 4.46022727272727 6.875  C 4.46022727272727 5.3904296875  5.03764204545455 3.9896484375  6.08806818181818 2.93046875  C 7.13849431818182 1.8712890625  8.52769886363636 1.2890625  10 1.2890625  C 11.4723011363636 1.2890625  12.8615056818182 1.8712890625  13.9119318181818 2.93046875  C 14.9623579545455 3.9896484375  15.5397727272727 5.3904296875  15.5397727272727 6.875  L 15.5397727272727 8.25  L 4.46022727272727 8.25  Z M 18.2670454545455 10.26953125  L 18.2670454545455 19.98046875  C 18.2670454545455 20.3822265625  17.9410511363636 20.7109375  17.5426136363636 20.7109375  L 2.45738636363636 20.7109375  C 2.05894886363636 20.7109375  1.73295454545455 20.3822265625  1.73295454545455 19.98046875  L 1.73295454545455 10.26953125  C 1.73295454545455 9.8677734375  2.05894886363636 9.5390625  2.45738636363636 9.5390625  L 17.5426136363636 9.5390625  C 17.9410511363636 9.5390625  18.2670454545455 9.8677734375  18.2670454545455 10.26953125  Z " fill-rule="nonzero" fill="#5c5c5c" stroke="none" transform="matrix(1 0 0 1 528 386 )" />
  </g>
</svg>