<?xml version="1.0" encoding="utf-8"?>
<svg version="1.1" xmlns:xlink="http://www.w3.org/1999/xlink" width="15px" height="18px" xmlns="http://www.w3.org/2000/svg">
  <g transform="matrix(1 0 0 1 -382 -209 )">
    <path d="M 14.3725 1.1845  L 12.5685 0.73625  L 12.09275 2.640625  C 11.414875 2.492125  10.71775 2.40825  10 2.40825  C 5.670125 2.40825  1.954875 5.22425  0.375 9.23375  C 1.803625 12.859625  4.9785 15.501  8.7735 15.975375  L 8.999 15.06925  C 5.595875 14.68975  2.727625 12.40725  1.3375 9.23375  C 2.656125 6.22525  5.304375 4.012875  8.4765 3.468375  C 6.492375 4.111875  5.056875 5.97225  5.056875 8.170875  C 5.056875 10.731125  7.001125 12.834875  9.492625 13.08925  L 9.608125 12.625875  C 7.3215 12.427875  5.52575 10.511125  5.52575 8.170875  C 5.52575 7.538375  6.04 7.0255  6.671125 7.0255  C 7.30225 7.0255  7.81375 7.538375  7.81375 8.170875  C 7.81375 9.378125  8.79275 10.357125  10 10.357125  C 10.05775 10.357125  10.114125 10.365375  10.1705 10.373625  L 10.782375 7.915125  L 8.56725 16.816875  L 10.369875 17.265125  L 14.3725 1.1845  Z M 11.85625 3.592125  C 11.747625 3.548125  11.6335 3.506875  11.52075 3.46975  C 11.639 3.489  11.7545 3.517875  11.87 3.54125  L 11.931875 3.28825  L 11.85625 3.592125  Z " fill-rule="nonzero" fill="#7f7f7f" stroke="none" transform="matrix(1 0 0 1 382 209 )" />
  </g>
</svg>