<?xml version="1.0" encoding="utf-8"?>
<svg version="1.1" xmlns:xlink="http://www.w3.org/1999/xlink" width="1000px" height="272px" xmlns="http://www.w3.org/2000/svg">
  <g transform="matrix(1 0 0 1 -175 -76 )">
    <path d="M 176 81  A 4 4 0 0 1 180 77 L 1170 77  A 4 4 0 0 1 1174 81 L 1174 343  A 4 4 0 0 1 1170 347 L 180 347  A 4 4 0 0 1 176 343 L 176 81  Z " fill-rule="nonzero" fill="#ffffff" stroke="none" />
    <path d="M 175.5 81  A 4.5 4.5 0 0 1 180 76.5 L 1170 76.5  A 4.5 4.5 0 0 1 1174.5 81 L 1174.5 343  A 4.5 4.5 0 0 1 1170 347.5 L 180 347.5  A 4.5 4.5 0 0 1 175.5 343 L 175.5 81  Z " stroke-width="1" stroke-dasharray="9,4" stroke="#d7dde4" fill="none" stroke-dashoffset="0.5" />
  </g>
</svg>