<?xml version="1.0" encoding="utf-8"?>
<svg version="1.1" xmlns:xlink="http://www.w3.org/1999/xlink" width="15px" height="15px" xmlns="http://www.w3.org/2000/svg">
  <g transform="matrix(1 0 0 1 -182 -33 )">
    <path d="M 0.8333349609375 7.5  C 0.8333349609375 11.18208984375  3.81791015625 14.1666650390625  7.5 14.1666650390625  C 11.18208984375 14.1666650390625  14.1666650390625 11.18208984375  14.1666650390625 7.5  C 14.1666650390625 3.81791015625  11.18208984375 0.8333349609375  7.5 0.8333349609375  C 3.81791015625 0.8333349609375  0.8333349609375 3.81791015625  0.8333349609375 7.5  Z M 11.0129150390625 4.9750048828125  C 11.1301609506287 4.85759176040099  11.2892809246196 4.79161568051151  11.4552099609375 4.79161568051151  C 11.8004178862596 4.79161568051151  12.080264202301 5.07146199655289  12.080264202301 5.416669921875  C 12.080264202301 5.58229028020246  12.0145326816651 5.74114026230213  11.8975048828125 5.8583349609375  L 6.90375 10.858330078125  C 6.67284195815543 11.0896492048195  6.30270092331938 11.1039964000115  6.054580078125 10.8912451171875  L 3.1379296875 8.3912548828125  C 2.9994016143257 8.27249362854292  2.9196777682764 8.09913463524754  2.9196777682764 7.91666748046875  C 2.9196777682764 7.57142346132717  3.19955334413967 7.2915478854639  3.54479736328125 7.2915478854639  C 3.6940409542382 7.2915478854639  3.83836011514924 7.34494283676651  3.9516650390625 7.442080078125  L 6.4283349609375 9.5654296875  L 11.0129150390625 4.97501953125  Z " fill-rule="nonzero" fill="#108ee9" stroke="none" transform="matrix(1 0 0 1 182 33 )" />
  </g>
</svg>