<?xml version="1.0" encoding="utf-8"?>
<svg version="1.1" xmlns:xlink="http://www.w3.org/1999/xlink" width="11px" height="11px" xmlns="http://www.w3.org/2000/svg">
  <g transform="matrix(1 0 0 1 -204 -7 )">
    <path d="M 0.442999273985296 5.49729094488373  C 0.442999273985296 5.49819396330509  0.442999515990205 5.49909698170835  0.443 5.5  C 0.442999515990205 5.50090301829165  0.442999273985296 5.5018060366949  0.442999273985296 5.50270905511627  C 0.442999273985296 8.29411726615027  2.70588273384973 10.5570007260147  5.49729094488373 10.5570007260147  C 5.4981939633023 10.5570007260147  5.49909698171114 10.5570004840098  5.5 10.557  C 5.50090301829165 10.5570004840098  5.5018060366949 10.5570007260147  5.50270905511627 10.5570007260147  C 8.29411726615027 10.5570007260147  10.5570007260147 8.29411726615027  10.5570007260147 5.50270905511627  C 10.5570007260147 5.5018060366977  10.5570004840098 5.50090301828886  10.557 5.5  C 10.5570004840098 5.49909698170835  10.5570007260147 5.49819396330509  10.5570007260147 5.49729094488373  C 10.5570007260147 2.70588273384973  8.29411726615027 0.442999273985296  5.50270905511627 0.442999273985296  C 5.5018060366949 0.442999273985296  5.50090301829165 0.442999515990205  5.5 0.443  C 5.49909698170835 0.442999515990205  5.49819396330509 0.442999273985296  5.49729094488373 0.442999273985296  C 2.70588273384973 0.442999273985296  0.442999273985296 2.70588273384973  0.442999273985296 5.49729094488373  Z " fill-rule="nonzero" fill="#cdcdcd" stroke="none" transform="matrix(1 0 0 1 204 7 )" />
  </g>
</svg>