<?xml version="1.0" encoding="utf-8"?>
<svg version="1.1" xmlns:xlink="http://www.w3.org/1999/xlink" width="34px" height="34px" xmlns="http://www.w3.org/2000/svg">
  <g transform="matrix(1 0 0 1 -98 -76 )">
    <path d="M 33.9977333222656 17.0017  C 33.9977333222656 14.7089666777344  33.5483666445313 12.4848  32.6626666777344 10.3898333222656  C 31.8102378061726 8.37170318787219  30.5741397655173 6.53824436657674  29.0229666777344 4.9912  C 27.4758947264987 3.44006032206765  25.6424428345673 2.20396696071673  23.6243333222656 1.3515  C 21.532606460355 0.466361912221093  19.2837592963848 0.0124679210589308  17.0124666777344 0.017  C 14.7197333554687 0.017  12.4955666777344 0.466366677734375  10.4011666777344 1.35206667773438  C 8.38284836063202 2.20445690104328  6.5491967268483 3.44055518439685  5.00196667773437 4.99176667773438  C 3.45081586673089 6.53882942858028  2.21472094596473 8.37228362225874  1.36226667773437 10.3904  C 0.476994041163925 12.4819061989344  0.0229079047709532 14.7305576884836  0.0272 17.0017  C 0.0209832139528553 21.5078285158733  1.81163281679209 25.8304729824569  5.00253332226563 29.0122  C 6.54960527350131 30.5633396779324  8.38305716543266 31.7994330392833  10.4011666777344 32.6519  C 12.4926728766688 33.5371726365704  14.741324366218 33.9912587729634  17.0124666777344 33.9869666777344  C 19.3052 33.9869666777344  21.5299333554688 33.5376  23.6243333222656 32.6519  C 25.642456589948 31.7994584334058  27.4759131088843 30.5633619525784  29.0229666777344 29.0122  C 30.5741286267573 27.4651464409524  31.8102251073877 25.6316899335846  32.6626666777344 23.6135666777344  C 33.5480140521489 21.521884829751  34.0021017009408 19.2730330543611  33.9977333222656 17.0017  Z M 31.3423333222656 23.0548333222656  C 30.5616435785625 24.9028541738504  29.4296651309225 26.581769510471  28.0092 27.9984333222656  C 25.0959166864795 30.9198342834594  21.1382118745967 32.5593266656785  17.0124666777344 32.5538666777344  C 12.8868155101835 32.5594140549796  8.92914534056601 30.9201399729096  6.01573332226562 27.999  C 3.09440086520519 25.0854849686746  1.45510568872676 21.1275599071514  1.46086667773437 17.0017  C 1.45519384760675 12.8760239839086  3.09448707756805 8.91830756897829  6.01573332226562 6.00496667773437  C 8.92907421617168 3.08372041269244  12.886790645358 1.4444271698261  17.0124666777344 1.4501  C 21.1381302655468 1.44448990965013  25.0958235492792 3.08377357057751  28.0092 6.00496667773437  C 30.930600949015 8.91824999671221  32.5700933190046 12.8759548079194  32.5646333222656 17.0017  C 32.5646333222656 19.1017666777344  32.1532333222656 21.1383666777344  31.3429 23.0548333222656  Z " fill-rule="nonzero" fill="#aaaaaa" stroke="none" transform="matrix(1 0 0 1 98 76 )" />
  </g>
</svg>