<?xml version="1.0" encoding="utf-8"?>
<svg version="1.1" xmlns:xlink="http://www.w3.org/1999/xlink" width="17px" height="17px" xmlns="http://www.w3.org/2000/svg">
  <g transform="matrix(1 0 0 1 -1157 -18 )">
    <path d="M 0.684635241613639 8.49581327845668  C 0.684635241613639 8.4972088523806  0.684635615621227 8.49860442627654  0.684636363636364 8.5  C 0.684635615621227 8.50139557372346  0.684635241613639 8.5027911476194  0.684635241613639 8.50418672154332  C 0.684635241613639 12.818181229505  4.18181877049503 16.3153647583864  8.49581327845668 16.3153647583864  C 8.49720885237629 16.3153647583864  8.49860442628086 16.3153643843788  8.5 16.3153636363636  C 8.50139557372346 16.3153643843788  8.5027911476194 16.3153647583864  8.50418672154332 16.3153647583864  C 12.818181229505 16.3153647583864  16.3153647583864 12.818181229505  16.3153647583864 8.50418672154332  C 16.3153647583864 8.50279114762371  16.3153643843788 8.50139557371914  16.3153636363636 8.5  C 16.3153643843788 8.49860442627654  16.3153647583864 8.4972088523806  16.3153647583864 8.49581327845668  C 16.3153647583864 4.18181877049503  12.818181229505 0.684635241613639  8.50418672154332 0.684635241613639  C 8.5027911476194 0.684635241613639  8.50139557372346 0.684635615621227  8.5 0.684636363636364  C 8.49860442627654 0.684635615621227  8.4972088523806 0.684635241613639  8.49581327845668 0.684635241613639  C 4.18181877049503 0.684635241613639  0.684635241613639 4.18181877049503  0.684635241613639 8.49581327845668  Z " fill-rule="nonzero" fill="#cdcdcd" stroke="none" transform="matrix(1 0 0 1 1157 18 )" />
  </g>
</svg>