<?xml version="1.0" encoding="utf-8"?>
<svg version="1.1" xmlns:xlink="http://www.w3.org/1999/xlink" width="23px" height="23px" xmlns="http://www.w3.org/2000/svg">
  <g transform="matrix(1 0 0 1 -1124 -131 )">
    <path d="M 12.0664666572266 11.5  L 8.88323334277344 8.31676665722656  L 10.2501 6.9499  L 14.8002 11.5  L 10.2501 16.0501  L 8.88323334277344 14.6832333427734  L 12.0664666572266 11.5  Z M 11.5 2.8  C 6.6951226764721 2.8  2.8 6.6951226764721  2.8 11.5  C 2.8 16.3048773235279  6.6951226764721 20.2  11.5 20.2  C 16.3048773235279 20.2  20.2 16.3048773235279  20.2 11.5  C 20.2 6.6951226764721  16.3048773235279 2.8  11.5 2.8  Z M 0.86666665694336 11.5  C 0.866666656660156 5.6274999997168  5.6274999997168 0.866666657226563  11.5 0.86666665694336  C 17.3725 0.866666657226562  22.1333333427734 5.6275  22.1333333430566 11.5  C 22.1333333433398 17.3725  17.3725 22.1333333427734  11.5 22.1333333430566  C 5.6275 22.1333333433398  0.866666657226563 17.3725000002832  0.86666665694336 11.5  Z " fill-rule="nonzero" fill="#7f7f7f" stroke="none" fill-opacity="0.72156862745098" transform="matrix(1 0 0 1 1124 131 )" />
  </g>
</svg>