<?xml version="1.0" encoding="utf-8"?>
<svg version="1.1" xmlns:xlink="http://www.w3.org/1999/xlink" width="10px" height="10px" xmlns="http://www.w3.org/2000/svg">
  <g transform="matrix(1 0 0 1 -841 -212 )">
    <path d="M 0 5  C 0 2.23864407226563  2.23864407226562 0  5 0  C 7.76135592773437 0  10 2.23864407226562  10 5  C 10 7.76135592773437  7.76135592773437 10  5 10  C 2.23864407226563 10  0 7.76135592773437  0 5  Z M 9.49152541992187 5  C 9.49152541992187 2.51932203125  7.48067796875 0.508474580078125  5 0.508474580078125  C 2.51932203125 0.508474580078125  0.508474580078125 2.51932203125  0.508474580078125 5  C 0.508474580078125 7.48067796875  2.51932203125 9.49152541992187  5 9.49152541992187  C 7.48067796875 9.49152541992187  9.49152541992187 7.48067796875  9.49152541992187 5  Z M 5 1.86440677734375  C 5.14041137543018 1.86440677734375  5.25423728515625 1.97823268706982  5.25423728515625 2.1186440625  L 5.25423728515625 4.68644067382813  L 7.43288135742188 6.26932203125  C 7.49870658555118 6.31716533704929  7.53765572116864 6.39362468084193  7.53765572116864 6.475  C 7.53765572116864 6.61542717459077  7.42381700369234 6.72926589206708  7.28338982910156 6.72926589206708  C 7.22967818699792 6.72926589206708  7.17734613153941 6.71225686201559  7.13389830078125 6.68067796875  L 4.94 5.08644067382813  L 4.92254237304688 5.07254237304687  C 4.81726931105948 5.03886829399355  4.74581345459835 4.94103611385639  4.74576271484375 4.8305084765625  L 4.74576271484375 2.11864407226563  C 4.74576271484375 1.97823268706982  4.85958862456982 1.86440677734375  5 1.86440677734375  Z " fill-rule="nonzero" fill="#aaaaaa" stroke="none" transform="matrix(1 0 0 1 841 212 )" />
  </g>
</svg>