<?xml version="1.0" encoding="utf-8"?>
<svg version="1.1" xmlns:xlink="http://www.w3.org/1999/xlink" width="37px" height="40px" xmlns="http://www.w3.org/2000/svg">
  <g transform="matrix(1 0 0 1 -96 -73 )">
    <path d="M 18.5004258510045 16.4695703125  C 20.112000906808 16.4695703125  21.4219185965402 4.62609375  21.4219185965402 2.9826171875  C 21.4219185965402 1.3304296875  20.1120396205357 0  18.5004258510045 0  C 16.8888120814732 0  15.5789331054687 1.33046875  15.5789331054687 2.9826171875  C 15.5789331054687 4.62609375  16.8888507952009 16.4695703125  18.5004258510045 16.4695703125  Z M 14.7688483537946 17.8  C 15.5702999441964 16.37390625  6.17668491908482 9.2956640625  4.7805517578125 8.4782421875  C 3.38356689453125 7.6521875  1.60049002511161 8.139140625  0.7904052734375 9.565234375  C -0.0110463169642858 10.9912890625  0.462925851004464 12.8173828125  1.86765345982143 13.634765625  C 3.26378662109375 14.460859375  13.9587248883929 19.22609375  14.7688483537946 17.8  Z M 14.7688483537946 22.2  C 13.9578731863839 20.77390625  3.26293491908482 25.539140625  1.86765345982143 26.365234375  C 0.462925851004465 27.1826171875  -0.0110463169642855 29.0087109375  0.7904052734375 30.434765625  C 1.60049002511161 31.860859375  3.38441859654018 32.3478125  4.7805517578125 31.5217578125  C 6.18527936662947 30.7043359375  15.5702999441964 23.6260546875  14.7688483537946 22.2  Z M 18.4995741489955 23.5304296875  C 16.887999093192 23.5304296875  15.5780814034598 35.37390625  15.5780814034598 37.0173828125  C 15.5780814034598 38.6695703125  16.887999093192 40  18.4995741489955 40  C 20.1111492047991 40  21.4210668945313 38.66953125  21.4210668945313 37.0173828125  C 21.4210668945313 35.37390625  20.1111492047991 23.5304296875  18.4995741489955 23.5304296875  Z M 22.2311516462054 22.2  C 21.4297000558036 23.62609375  30.8233150809152 30.7043359375  32.2194482421875 31.5217578125  C 33.6155814034598 32.3478125  35.3995099748884 31.860859375  36.2095947265625 30.434765625  C 37.0110463169643 29.0087109375  36.5370741489955 27.1826171875  35.1323465401786 26.365234375  C 33.7362133789063 25.539140625  23.0412751116071 20.77390625  22.2311516462054 22.2  Z M 22.2311516462054 17.8  C 23.0412751116071 19.22609375  33.7370650809152 14.460859375  35.1323465401786 13.634765625  C 36.5370741489955 12.8173828125  37.0110463169643 10.9912890625  36.2009615652902 9.565234375  C 35.3995099748884 8.139140625  33.6155814034598 7.6521875  32.2194482421875 8.4782421875  C 30.8233150809152 9.2956640625  21.4297000558036 16.3739453125  22.2311516462054 17.8  Z " fill-rule="nonzero" fill="#aaaaaa" stroke="none" transform="matrix(1 0 0 1 96 73 )" />
  </g>
</svg>