<?xml version="1.0" encoding="utf-8"?>
<svg version="1.1" xmlns:xlink="http://www.w3.org/1999/xlink" width="14px" height="18px" xmlns="http://www.w3.org/2000/svg">
  <g transform="matrix(1 0 0 1 -1082 -17 )">
    <path d="M 13 2.138671875  C 13.248046875 1.140625  12.373046875 0.267578125  11.373046875 0.267578125  C 10.373046875 0.267578125  9.498046875 1.140625  9.498046875 2.138671875  L 9.498046875 15.861328125  C 9.498046875 16.859375  10.373046875 17.732421875  11.373046875 17.732421875  C 12.373046875 17.732421875  13.248046875 16.859375  13 15.861328125  L 13 2.138671875  Z M 4.501953125 2.138671875  C 4.5 1.140625  3.625 0.267578125  2.626953125 0.267578125  C 1.626953125 0.267578125  0.751953124999999 1.140625  1 2.138671875  L 1 15.861328125  C 0.751953124999999 16.859375  1.626953125 17.732421875  2.626953125 17.732421875  C 3.626953125 17.732421875  4.501953125 16.859375  4.501953125 15.861328125  L 4.501953125 2.138671875  Z " fill-rule="nonzero" fill="#bdbdbd" stroke="none" transform="matrix(1 0 0 1 1082 17 )" />
  </g>
</svg>