<?xml version="1.0" encoding="utf-8"?>
<svg version="1.1" xmlns:xlink="http://www.w3.org/1999/xlink" width="13px" height="13px" xmlns="http://www.w3.org/2000/svg">
  <g transform="matrix(1 0 0 1 -552 -94 )">
    <path d="M 11.7554896789941 3.52080794279297  C 10.7009974732923 1.52101067324266  8.6260237682015 0.26937223656532  6.36524006974939 0.26937223656532  C 2.99977590975046 0.26937223656532  0.271528155686891 2.99761999062889  0.271528155686891 6.36308415062782  C 0.271528155686891 9.72854831062675  2.99977590975046 12.4567960646903  6.36524006974939 12.4567960646903  C 9.57244956593738 12.4567960646903  12.2307175722736 9.97081076324796  12.4452978625879 6.77078763029297  L 11.6295529661035 6.77078763029297  C 11.4170214385337 9.52153015612172  9.12296993760994 11.6451727206184  6.3640291818825 11.6451727206184  C 3.44729357655009 11.6451727206184  1.082812189695 9.28069133376328  1.082812189695 6.36395572843087  C 1.082812189695 3.44722012309846  3.44729357655009 1.08273873624337  6.3640291818825 1.08273873624337  C 8.16639673799747 1.08273873624337  9.84431440709995 2.00191532547276  10.8146205569238 3.52080794279297  L 11.7546771789941 3.52080794279297  Z " fill-rule="nonzero" fill="#000000" stroke="none" transform="matrix(1 0 0 1 552 94 )" />
  </g>
</svg>