<?xml version="1.0" encoding="utf-8"?>
<svg version="1.1" xmlns:xlink="http://www.w3.org/1999/xlink" width="10px" height="10px" xmlns="http://www.w3.org/2000/svg">
  <g transform="matrix(1 0 0 1 -631 -13 )">
    <path d="M 1.878125 0.386796875  L 4.9996484375 3.5083203125  L 8.121171875 0.386796875  C 8.5325 -0.0248828124999999  9.201171875 -0.0248828124999999  9.6125 0.386796875  C 10.0241796875 0.7984765625  10.0241796875 1.466796875  9.6125 1.8784765625  L 6.491328125 5  L 9.6125 8.121171875  C 10.0241796875 8.5328515625  10.0241796875 9.201171875  9.6125 9.6128515625  C 9.201171875 10.02453125  8.5325 10.02453125  8.121171875 9.6128515625  L 4.9996484375 6.491328125  L 1.878125 9.6128515625  C 1.466796875 10.02453125  0.798125 10.02453125  0.386796875 9.6128515625  C -0.0248828124999999 9.201171875  -0.0248828124999999 8.5328515625  0.386796875 8.121171875  L 3.5083203125 5  L 0.386796875 1.8784765625  C -0.0248828124999999 1.466796875  -0.0248828124999999 0.7984765625  0.386796875 0.386796875  C 0.798125 -0.0248828124999999  1.466796875 -0.0248828124999999  1.878125 0.386796875  Z " fill-rule="nonzero" fill="#7f7f7f" stroke="none" transform="matrix(1 0 0 1 631 13 )" />
  </g>
</svg>