<?xml version="1.0" encoding="utf-8"?>
<svg version="1.1" xmlns:xlink="http://www.w3.org/1999/xlink" width="22px" height="22px" xmlns="http://www.w3.org/2000/svg">
  <g transform="matrix(1 0 0 1 0 -2 )">
    <path d="M 11.0066408526817 21.4688444578539  C 11.0044272349527 21.4688444578539  11.0022136172842 21.4688437562163  11 21.4688423529412  C 5.22305882374867 21.4616443071309  0.543736471148845 16.776487905088  0.543736471148845 10.9995422444702  C 0.543736471148845 5.21750296483929  5.23100542681208 0.530234009176054  11.013044706443 0.530234009176054  C 16.7950839860738 0.530234009176054  21.4823529417371 5.21750296483929  21.4823529417371 10.9995422444702  C 21.4787534923896 16.7826804675017  16.7896718521247 21.4688444578539  11.0066408526817 21.4688444578539  Z M 20.3168317647059 11.0126952941176  C 20.3168317844042 5.86701929456768  16.1456759798517 1.69549848194408  11 1.69504823529412  C 5.85319033098837 1.695048199625  1.68153764705883 5.86670088355455  1.68153764705883 11.0126952584485  C 1.68153764705883 16.1586896333425  5.85319033098837 20.3303423172721  10.9991847058824 20.3303423172721  C 16.1451790807763 20.3303423172721  20.3168317647059 16.1586896333425  20.3168317647059 11.0126952584485  Z M 18.2219917647059 11.1016788235294  L 18.2219917647059 11.0998152941176  C 18.2219917647059 11.1068035294118  18.2208270588235 11.1130929411765  18.2208270588235 11.1192658823529  C 18.2201282352941 11.12276  18.2201282352941 11.1261376470588  18.2196623529412 11.1289329411765  C 18.2196623529412 11.1335917647059  18.2183811764706 11.1387164705882  18.2179152941176 11.1432588235294  L 18.2160517647059 11.1599141176471  L 18.2160517647059 11.1617776470588  C 18.198370255019 11.2830769894037  18.1453889131104 11.3964927060275  18.0637082352941 11.4878952941176  C 17.9106658823529 11.6849635294118  17.7437635294118 11.8699188235294  17.5762788235294 12.0516129411765  C 16.6836964992618 13.0381931866581  15.6417132773499 13.8784768802488  14.4884105882353 14.5417541176471  C 13.7686437674414 14.9579280027542  12.9878024791348 15.2581034240165  12.1746058823529 15.43124  C 11.2955088524018 15.6068416461588  10.3890881052444 15.5931434921543  9.51569882352941 15.3910576470588  C 7.98795411764706 15.0378023529412  6.60393411764706 14.1589152941176  5.3942705882353 13.1089329411765  C 4.8166140072778 12.6213533002454  4.28793180974789 12.0785500257949  3.81574470588236 11.4882447058824  C 3.6129686198415 11.2467203546709  3.6129686198415 10.8944419982703  3.81574470588235 10.6529176470588  C 3.96808823529412 10.4558494117647  4.13557294117647 10.2703117647059  4.30305764705883 10.0892  C 5.19551621484318 9.10282483152101  6.23748500835985 8.26287480752173  7.39080941176471 7.60010705882353  C 8.11047693843545 7.18373490131219  8.89129332937294 6.88343602254238  9.70449764705882 6.71027176470588  C 10.5833352292206 6.53466134640111  11.4894893558824 6.54816055347577  12.3627058823529 6.74987176470588  C 13.8905670588235 7.10336  15.2744705882353 7.98271294117647  16.4841341176471 9.03269529411765  C 17.0620375230689 9.52004762432313  17.5907795480497 10.062872272221  18.0627764705882 10.6533835294118  C 18.1450609233398 10.7444000939591  18.1981672408937 10.8579964951441  18.2152364705882 10.9795011764706  C 18.2149822647044 10.9800557882316  18.2149822647044 10.9806936235331  18.2152364705882 10.9812482352941  L 18.2171 10.9979035294118  L 18.2196623529412 11.0126952941177  L 18.2196623529412 11.0224788235294  C 18.2204370087222 11.0288957799326  18.2208646898182 11.0353498764717  18.2209435294118 11.0418129411765  C 18.2209435294118 11.0521788235294  18.2221082352941 11.0619623529412  18.2221082352941 11.0716294117647  L 18.2219917647059 11.1017952941176  Z M 13.6724176470588 10.9493352941176  C 13.6724176470588 9.34413764705882  12.4501752941176 8.04269529411765  10.9417647058824 8.04269529411765  C 9.43405294117647 8.04269529411765  8.21181058823529 9.34355529411765  8.21181058823529 10.9493352941176  C 8.21181058823529 12.5551152941177  9.43475176470588 13.8555094117647  10.9417647058824 13.8555094117647  C 12.4487776470588 13.8555094117647  13.6724176470588 12.5545329411765  13.6724176470588 10.9493352941176  Z M 10.9417647058824 12.4016070588235  C 10.1883164705882 12.4016070588235  9.57672941176471 11.7507694117647  9.57672941176471 10.9487529411765  C 9.57672941176471 10.1467364705882  10.1879670588235 9.49601529411765  10.9417647058824 9.49601529411765  C 11.6955623529412 9.49601529411765  12.3068 10.14662  12.3066835294118 10.9493352941176  C 12.3065670588235 11.7520505882353  11.6961447058824 12.4021894117647  10.9417647058824 12.4021894117647  Z " fill-rule="nonzero" fill="#aaaaaa" stroke="none" transform="matrix(1 0 0 1 0 2 )" />
  </g>
</svg>