<?xml version="1.0" encoding="utf-8"?>
<svg version="1.1" xmlns:xlink="http://www.w3.org/1999/xlink" width="26px" height="26px" xmlns="http://www.w3.org/2000/svg">
  <g transform="matrix(1 0 0 1 -1092 -17 )">
    <path d="M 4.883125 1.005671875  L 12.9990859375 9.1216328125  L 21.115046875 1.005671875  C 22.1845 -0.0646953124999999  23.923046875 -0.0646953124999999  24.9925 1.005671875  C 26.0628671875 2.0760390625  26.0628671875 3.813671875  24.9925 4.8840390625  L 16.877453125 13  L 24.9925 21.115046875  C 26.0628671875 22.1854140625  26.0628671875 23.923046875  24.9925 24.9934140625  C 23.923046875 26.06378125  22.1845 26.06378125  21.115046875 24.9934140625  L 12.9990859375 16.877453125  L 4.883125 24.9934140625  C 3.813671875 26.06378125  2.075125 26.06378125  1.005671875 24.9934140625  C -0.0646953124999999 23.923046875  -0.0646953124999999 22.1854140625  1.005671875 21.115046875  L 9.1216328125 13  L 1.005671875 4.8840390625  C -0.0646953124999999 3.813671875  -0.0646953124999999 2.0760390625  1.005671875 1.005671875  C 2.075125 -0.0646953124999999  3.813671875 -0.0646953124999999  4.883125 1.005671875  Z " fill-rule="nonzero" fill="#aaaaaa" stroke="none" transform="matrix(1 0 0 1 1092 17 )" />
  </g>
</svg>