<?xml version="1.0" encoding="utf-8"?>
<svg version="1.1" xmlns:xlink="http://www.w3.org/1999/xlink" width="15px" height="15px" xmlns="http://www.w3.org/2000/svg">
  <g transform="matrix(1 0 0 1 -628 -11 )">
    <path d="M 2.8171875 0.5801953125  L 7.49947265625 5.26248046875  L 12.1817578125 0.5801953125  C 12.79875 -0.0373242187499999  13.8017578125 -0.0373242187499999  14.41875 0.5801953125  C 15.03626953125 1.19771484375  15.03626953125 2.2001953125  14.41875 2.81771484375  L 9.7369921875 7.5  L 14.41875 12.1817578125  C 15.03626953125 12.79927734375  15.03626953125 13.8017578125  14.41875 14.41927734375  C 13.8017578125 15.036796875  12.79875 15.036796875  12.1817578125 14.41927734375  L 7.49947265625 9.7369921875  L 2.8171875 14.41927734375  C 2.2001953125 15.036796875  1.1971875 15.036796875  0.5801953125 14.41927734375  C -0.0373242187499999 13.8017578125  -0.0373242187499999 12.79927734375  0.5801953125 12.1817578125  L 5.26248046875 7.5  L 0.5801953125 2.81771484375  C -0.0373242187499999 2.2001953125  -0.0373242187499999 1.19771484375  0.5801953125 0.5801953125  C 1.1971875 -0.0373242187499999  2.2001953125 -0.0373242187499999  2.8171875 0.5801953125  Z " fill-rule="nonzero" fill="#aaaaaa" stroke="none" transform="matrix(1 0 0 1 628 11 )" />
  </g>
</svg>