<?xml version="1.0" encoding="utf-8"?>
<svg version="1.1" xmlns:xlink="http://www.w3.org/1999/xlink" width="22px" height="22px" xmlns="http://www.w3.org/2000/svg">
  <defs>
    <filter x="117px" y="135px" width="22px" height="22px" filterUnits="userSpaceOnUse" id="filter74">
      <feOffset dx="0" dy="0" in="SourceAlpha" result="shadowOffsetInner" />
      <feGaussianBlur stdDeviation="2" in="shadowOffsetInner" result="shadowGaussian" />
      <feComposite in2="shadowGaussian" operator="atop" in="SourceAlpha" result="shadowComposite" />
      <feColorMatrix type="matrix" values="0 0 0 0 0  0 0 0 0 0  0 0 0 0 0  0 0 0 0.149019607843137 0  " in="shadowComposite" />
    </filter>
    <g id="widget75">
      <path d="M 128 140  C 131.36 140  134 142.64  134 146  C 134 149.36  131.36 152  128 152  C 124.64 152  122 149.36  122 146  C 122 142.64  124.64 140  128 140  Z " fill-rule="nonzero" fill="#108ee9" stroke="none" />
      <path d="M 128 140  C 131.36 140  134 142.64  134 146  C 134 149.36  131.36 152  128 152  C 124.64 152  122 149.36  122 146  C 122 142.64  124.64 140  128 140  Z " stroke-width="2" stroke="#108ee9" fill="none" />
    </g>
  </defs>
  <g transform="matrix(1 0 0 1 -117 -135 )">
    <use xlink:href="#widget75" filter="url(#filter74)" />
    <use xlink:href="#widget75" />
  </g>
</svg>