<?xml version="1.0" encoding="utf-8"?>
<svg version="1.1" xmlns:xlink="http://www.w3.org/1999/xlink" width="8px" height="8px" xmlns="http://www.w3.org/2000/svg">
  <g transform="matrix(1 0 0 1 -121 -142 )">
    <path d="M 125 143  C 126.68 143  128 144.32  128 146  C 128 147.68  126.68 149  125 149  C 123.32 149  122 147.68  122 146  C 122 144.32  123.32 143  125 143  Z " fill-rule="nonzero" fill="#108ee9" stroke="none" />
    <path d="M 125 143  C 126.68 143  128 144.32  128 146  C 128 147.68  126.68 149  125 149  C 123.32 149  122 147.68  122 146  C 122 144.32  123.32 143  125 143  Z " stroke-width="2" stroke="#108ee9" fill="none" />
  </g>
</svg>