<?xml version="1.0" encoding="utf-8"?>
<svg version="1.1" xmlns:xlink="http://www.w3.org/1999/xlink" width="20px" height="20px" xmlns="http://www.w3.org/2000/svg">
  <g transform="matrix(1 0 0 1 -528 -302 )">
    <path d="M 20 10  C 20 15.523  15.523 20  10 20  C 4.477 20  0 15.523  0 10  C 0 4.477  4.477 0  10 0  C 15.523 0  20 4.477  20 10  Z M 10 18  C 14.4182779986463 18  18 14.4182779986463  18 10  C 18 5.58172200135365  14.4182779986463 2  10 2  C 5.58172200135365 2  2 5.58172200135365  2 10  C 2 14.4182779986463  5.58172200135365 18  10 18  Z M 10 15  C 7.23857625084603 15  5 12.761423749154  5 10  L 7 10  C 7 11.6568542494924  8.34314575050762 13  10 13  C 11.6568542494924 13  13 11.6568542494924  13 10  L 15 10  C 15 12.761423749154  12.761423749154 15  10 15  Z " fill-rule="nonzero" fill="#d3d5db" stroke="none" transform="matrix(1 0 0 1 528 302 )" />
  </g>
</svg>