<?xml version="1.0" encoding="utf-8"?>
<svg version="1.1" xmlns:xlink="http://www.w3.org/1999/xlink" width="70px" height="57px" xmlns="http://www.w3.org/2000/svg">
  <defs>
    <mask fill="white" id="clip77">
      <path d="M -110 139  C -112.775 139  -115 136.775  -115 134  L -115 87  C -115 84.225  -112.775 82  -110 82  L -50 82  C -47.225 82  -45 84.225  -45 87  L -45 134  C -45 136.775  -47.225 139  -50 139  " fill-rule="evenodd" />
    </mask>
  </defs>
  <g transform="matrix(1 0 0 1 115 -82 )">
    <path d="M -115 82  L -45 82  L -45 139  L -115 139  L -115 82  " fill-rule="nonzero" fill="#cccccc" stroke="none" mask="url(#clip77)" />
    <path d="M -111 86  L -49 86  L -49 135  L -111 135  L -111 86  " fill-rule="nonzero" fill="#ffffff" stroke="none" mask="url(#clip77)" />
    <path d="M -74.325 99.1  C -76.719 99.1  -78.6 97.219  -78.6 94.825  C -78.6 92.431  -76.719 90.55  -74.325 90.55  C -71.931 90.55  -70.05 92.431  -70.05 94.825  C -70.05 97.219  -71.931 99.1  -74.325 99.1  " fill-rule="nonzero" fill="#cccccc" stroke="none" mask="url(#clip77)" />
    <path d="M -110 134  L -110 108.7  L -95.25 97.2  L -74.6 111.525714285714  L -62.8 104.1  L -51 111.525714285714  L -51 134  L -110 134  " fill-rule="nonzero" fill="#169bd5" stroke="none" mask="url(#clip77)" />
  </g>
</svg>