<?xml version="1.0" encoding="utf-8"?>
<svg version="1.1" xmlns:xlink="http://www.w3.org/1999/xlink" width="18px" height="18px" xmlns="http://www.w3.org/2000/svg">
  <g transform="matrix(1 0 0 1 -907 -25 )">
    <path d="M 10.9852941238511 12.9705882290901  L 10.9852941238511 16.9570588235294  L 12.9658235232077 16.9570588235294  C 12.9674125383204 16.9570651827934  12.9690015645682 16.957068362435  12.9705905924057 16.957068362435  C 13.6275327403649 16.957068362435  14.1604560761555 16.4252055504564  14.1617646996783 15.7682647058824  L 14.1617646996783 8.59817647679228  C 14.1617646996775 8.37888613445463  14.3395339874082 8.20111684672391  14.5588235170028 8.20111684672391  L 16.505205888557 8.20508824149816  C 16.6395972305036 8.20639358197973  16.7676191716302 8.14791083056302  16.8546176470588 8.04547059443934  C 16.9943823467371 7.87632353561581  16.9642058823529 7.63650001240809  16.763294111443 7.48561765326287  L 9.27873529411764 1.14855882973346  C 9.11752941796875 1.02785295358456  8.88564705882353 1.02785295358456  8.74270588235294 1.13267646438419  L 1.22002941796875 7.49752941796875  C 1.12129650030249 7.56867458323339  1.06208992195055 7.68237477617517  1.06041177090992 7.80405882352941  C 1.06041177090992 8.01847058823529  1.25100000620404 8.20111764085478  1.49717646438419 8.20111764085478  L 3.44117646438419 8.20111764085478  C 3.66048586615787 8.20111764035749  3.83825515388859 8.37888692808821  3.83825515388859 8.59817645768286  C 3.83825515388859 8.59950001621396  3.83824853595023 8.60082356647244  3.83823530032169 8.60214705882353  L 3.83823530032169 15.7690588297335  C 3.83823530032169 16.4202353065257  4.37585294117647 16.9570588235294  5.03417647679228 16.9570588235294  L 7.0147058761489 16.9570588235294  L 7.0147058761489 12.9705882290901  C 7.0147058761489 11.890588222886  7.73973529411765 10.985294105239  8.68235293497242 10.9852941238511  L 9.31764706502757 10.9852941238511  C 10.2602647058824 10.9852941238511  10.9852941238511 11.8905882414982  10.9852941238511 12.9705882290901  Z M 7.80882352941177 16.9570588235294  L 10.1911764705882 16.9570588235294  L 10.1911764705882 12.9705882290901  C 10.1911764705882 12.295588222886  9.7782352879136 11.7794117585018  9.31764706502757 11.7794117585018  L 8.68235293497243 11.7794117585018  C 8.22176469347427 11.7794117585018  7.80882352941177 12.295588222886  7.80882352941177 12.9705882290901  L 7.80882352941177 16.9570588235294  Z M 16.5044117647059 8.9992058761489  L 14.9558823529412 8.99602941796875  L 14.9558823529412 15.7682647058824  C 14.9545708863497 16.8637835717381  14.0661093024916 17.7511821978622  12.9705896516453 17.7511821978622  C 12.9690009404492 17.7511821978622  12.9674122298256 17.7511802908375  12.9658235232077 17.7511764767923  L 5.03417647679228 17.7511764767923  C 3.93819110437111 17.7511852027886  3.0484910956485 16.865035476193  3.04411764705882 15.7690588297335  L 3.04411764705882 8.99523529411765  L 1.49717646438419 8.99523529411765  C 0.821382352941176 8.99523529411765  0.266294117647059 8.46635294117647  0.266294117647059 7.80405882352941  C 0.266294117647059 7.43399999379595  0.443382359145221 7.08617646438419  0.725294111443015 6.87652940556066  L 8.24876469967831 0.512470594439338  C 8.7035359463213 0.178261278965463  9.32425438520715 0.184083546713755  9.77267647679228 0.526764712086397  L 17.2580294179688 6.86461764085478  C 17.801205888557 7.27041176470588  17.8972941300552 8.02958822909007  17.4684705820312 8.55052941796875  C 17.23020557811 8.83649990580186  16.8766293228983 9.00105557298107  16.5044117647059 8.9992058761489  Z " fill-rule="nonzero" fill="#cccccc" stroke="none" transform="matrix(1 0 0 1 907 25 )" />
  </g>
</svg>