<?xml version="1.0" encoding="utf-8"?>
<svg version="1.1" xmlns:xlink="http://www.w3.org/1999/xlink" width="18px" height="18px" xmlns="http://www.w3.org/2000/svg">
  <g transform="matrix(1 0 0 1 -992 -25 )">
    <path d="M 15.8331580528846 6.42166573660714  L 9.95530348557692 0.961774553571429  C 9.70582932692308 0.730119977678571  9.37319711538462 0.60205078125  9.02028245192308 0.60205078125  C 8.66736778846154 0.60205078125  8.33473557692308 0.730119977678571  8.08526141826923 0.961774553571428  L 2.20740685096154 6.41978236607143  C 1.828125 6.77197265625  1.71454326923077 7.29743303571429  1.92142427884615 7.75697544642857  C 2.12627704326923 8.21651785714286  2.60697115384615 8.51409040178571  3.14242788461538 8.51409040178571  L 5.76900540865385 8.51409040178571  C 5.783203125 8.51409040178571  5.79334435096154 8.52350725446429  5.79334435096154 8.53669084821429  L 5.79334435096154 13.8816964285714  C 5.79334435096154 14.5578264508929  6.38559194711538 15.1096540178571  7.11576021634615 15.1096540178571  L 10.9653695913462 15.1096540178571  C 11.6935096153846 15.1096540178571  12.2877854567308 14.5597098214286  12.2877854567308 13.8816964285714  L 12.2877854567308 8.53857421875  C 12.2877854567308 8.525390625  12.2979266826923 8.51597377232143  12.3121243990385 8.51597377232143  L 14.8981370192308 8.51597377232143  C 15.4356219951923 8.51597377232143  15.9142878605769 8.21840122767857  16.119140625 7.75885881696429  C 16.3239933894231 7.29931640625  16.2124399038462 6.77385602678571  15.8331580528846 6.42166573660714  Z M 14.9245042067308 7.28236607142857  C 14.9265324519231 7.28801618303571  14.9184194711538 7.30496651785714  14.9123347355769 7.30873325892857  C 14.9123347355769 7.30873325892857  14.90625 7.31061662946429  14.8981370192308 7.31061662946429  L 12.3121243990385 7.31061662946429  C 11.583984375 7.31061662946429  10.9897085336538 7.86056082589286  10.9897085336538 8.53857421875  L 10.9897085336538 13.8816964285714  C 10.9897085336538 13.8948800223214  10.9795673076923 13.904296875  10.9653695913462 13.904296875  L 7.11373197115385 13.904296875  C 7.09953425480769 13.904296875  7.08939302884615 13.8948800223214  7.08939302884615 13.8816964285714  L 7.08939302884615 8.53857421875  C 7.08939302884615 7.86244419642857  6.49714543269231 7.31061662946429  5.76697716346154 7.31061662946429  L 3.14039963942308 7.31061662946429  C 3.13228665865385 7.31061662946429  3.12823016826923 7.30873325892857  3.12823016826923 7.30873325892857  C 3.12214543269231 7.30496651785714  3.11403245192308 7.28801618303571  3.11606069711538 7.28048270089286  C 3.11606069711538 7.28048270089286  3.11808894230769 7.27671595982143  3.12417367788462 7.27106584821429  L 9.00405649038462 1.81305803571429  C 9.01419771634616 1.80364118303571  9.02839543269231 1.80364118303571  9.03853665865385 1.81305803571429  L 14.9163912259615 7.27294921875  C 14.9224759615385 7.27859933035714  14.9245042067308 7.28236607142857  14.9245042067308 7.28236607142857  Z M 17.4375 16.8272879464286  C 17.4375 16.4939313616071  17.1474609375 16.224609375  16.7884615384615 16  L 1.25210336538462 16  C 0.893103966346154 16.224609375  0.603064903846154 16.4939313616071  0.603064903846154 16.8272879464286  C 0.603064903846154 17.16064453125  0.893103966346154 17.4299665178571  1.25210336538462 17.4299665178571  L 16.7884615384615 17.4299665178571  C 17.1474609375 17.4299665178571  17.4375 17.16064453125  17.4375 16.8272879464286  Z " fill-rule="nonzero" fill="#cccccc" stroke="none" transform="matrix(1 0 0 1 992 25 )" />
  </g>
</svg>