<?xml version="1.0" encoding="utf-8"?>
<svg version="1.1" xmlns:xlink="http://www.w3.org/1999/xlink" width="22px" height="22px" xmlns="http://www.w3.org/2000/svg">
  <g transform="matrix(1 0 0 1 -54 -180 )">
    <path d="M 21.61224490625 11  C 21.61224490625 16.85  16.85 21.61224490625  11 21.61224490625  C 5.15 21.61224490625  0.38775509375 16.85  0.38775509375 11  C 0.38775509375 5.15  5.15 0.38775509375  11 0.38775509375  C 16.85 0.38775509375  21.61224490625 5.15  21.61224490625 11  Z M 20.5510204003906 11  C 20.5510204003906 5.73367346679688  16.2663265332031 1.44897959960938  11 1.44897959960938  C 5.73367346679688 1.44897959960938  1.44897959960937 5.73367346679688  1.44897959960937 11  C 1.44897959960937 16.2663265332031  5.73367346679688 20.5510204003906  11 20.5510204003906  C 16.2663265332031 20.5510204003906  20.5510204003906 16.2663265332031  20.5510204003906 11  Z " fill-rule="nonzero" fill="#7f7f7f" stroke="none" transform="matrix(1 0 0 1 54 180 )" />
  </g>
</svg>