<?xml version="1.0" encoding="utf-8"?>
<svg version="1.1" xmlns:xlink="http://www.w3.org/1999/xlink" width="21px" height="25px" xmlns="http://www.w3.org/2000/svg">
  <g transform="matrix(1 0 0 1 201 -179 )">
    <path d="M 20.65283203125 20.9677734375  C 20.616015625 16.81318359375  18.00771484375 13.11171875  14.10517578125 11.684375  C 15.68828125 10.5685546875  16.6341796875 8.75322265625  16.64267578125 6.81611328125  C 16.56337890625 3.41201171875  13.73984375 0.710253906249999  10.33291015625 0.786718749999999  C 7.03359375 0.860351562499998  4.3771484375 3.516796875  4.303515625 6.81611328125  C 4.31201171875 8.75322265625  5.255078125 10.5685546875  6.841015625 11.684375  C 2.93564453125 13.11171875  0.327343749999999 16.81318359375  0.296191406249999 20.9677734375  C 0.321679687499999 22.819921875  1.84248046875 24.30390625  3.69462890625 24  L 17.25439453125 24  C 19.10654296875 24.30107421875  20.62734375 22.819921875  20.65283203125 20.9677734375  Z M 10.4716796875 11.03017578125  C 8.11826171875 11.05849609375  6.183984375 9.17236328125  6.15 6.8189453125  C 6.09052734375 4.43154296875  7.97666015625 2.44912109375  10.3640625 2.3896484375  C 12.75146484375 2.33017578125  14.73388671875 4.21630859375  14.793359375 6.6037109375  C 14.85283203125 8.99111328125  12.96669921875 10.970703125  10.579296875 11.03017578125  L 10.4716796875 11.03017578125  Z M 17.26005859375 22.47158203125  C 17.25439453125 22.4744140625  17.25439453125 22.4744140625  17.2515625 22  L 3.691796875 22  C 2.85068359375 22.48857421875  2.1568359375 21.8173828125  2.14267578125 20.9734375  L 2.14267578125 20.9677734375  C 2.26728515625 16.3685546875  6.0990234375 12.74072265625  10.70107421875 12.86533203125  C 15.12470703125 12.987109375  18.68173828125 16.544140625  18.803515625 20.9677734375  C 18.7921875 21.80888671875  18.101171875 22.48291015625  17.26005859375 22.47158203125  Z " fill-rule="nonzero" fill="#8a8a8a" stroke="none" transform="matrix(1 0 0 1 -201 179 )" />
  </g>
</svg>