<?xml version="1.0" encoding="utf-8"?>
<svg version="1.1" xmlns:xlink="http://www.w3.org/1999/xlink" width="18px" height="10px" xmlns="http://www.w3.org/2000/svg">
  <g transform="matrix(1 0 0 1 -66 -12 )">
    <path d="M 9.54525 0.321874999999999  C 9.22900491636365 0.0570177684581434  8.76837008363635 0.0570177684581434  8.452125 0.321874999999999  L 0.585375000000001 8.675  C 0.450265092442107 8.80475571969094  0.373894435579342 8.98398595646488  0.373894435579342 9.1713125  C 0.373894435579342 9.35863904353512  0.450265092442105 9.53786928030906  0.585375000000001 9.667625  C 0.870378845041295 9.94183298109974  1.32112115495871 9.94183298109974  1.606125 9.667625  L 9 1.818125  L 16.39125 9.667625  C 16.6762538450413 9.94183298109974  17.1269961549587 9.94183298109974  17.412 9.667625  C 17.5471099075579 9.53786928030906  17.6234805644207 9.35863904353513  17.6234805644207 9.1713125  C 17.6234805644207 8.98398595646488  17.5471099075579 8.80475571969094  17.412 8.675  L 9.54525 0.321874999999999  Z " fill-rule="nonzero" fill="#bfbfbf" stroke="none" transform="matrix(1 0 0 1 66 12 )" />
  </g>
</svg>