<?xml version="1.0" encoding="utf-8"?>
<svg version="1.1" xmlns:xlink="http://www.w3.org/1999/xlink" width="18px" height="18px" xmlns="http://www.w3.org/2000/svg">
  <g transform="matrix(1 0 0 1 -807 -25 )">
    <path d="M 17.7101226993865 17.7239263803681  C 18.0138036809816 17.4340490797546  18 16.9509202453988  17.6963190184049 16.6610429447853  L 13.6932515337423 12.6993865030675  C 13.6104294478528 12.6165644171779  13.5138036809816 12.5613496932515  13.4033742331288 12.5337423312883  C 14.521472392638 11.1947852760736  15.1840490797546 9.49693251533742  15.1840490797546 7.64723926380368  C 15.1840490797546 3.45092024539877  11.7883435582822 0.0552147239263804  7.5920245398773 0.0552147239263804  C 3.39570552147239 0.0552147239263804  0 3.45092024539877  0 7.64723926380368  C 0 11.8435582822086  3.39570552147239 15.239263803681  7.5920245398773 15.239263803681  C 9.44171779141104 15.239263803681  11.1257668711656 14.5766871165644  12.4509202453988 13.4861963190184  C 12.4923312883436 13.5828220858896  12.5475460122699 13.6794478527607  12.6303680981595 13.7622699386503  L 16.6334355828221 17.7239263803681  C 16.9371165644172 18.0138036809816  17.4064417177914 18.0138036809816  17.7101226993865 17.7239263803681  Z M 13.8036809815951 7.64723926380368  C 13.8036809815951 11.0843558282209  11.0291411042945 13.8588957055215  7.5920245398773 13.8588957055215  C 4.15490797546012 13.8588957055215  1.38036809815951 11.0843558282209  1.38036809815951 7.64723926380368  C 1.38036809815951 4.2101226993865  4.15490797546012 1.43558282208589  7.5920245398773 1.43558282208589  C 11.0291411042945 1.43558282208589  13.8036809815951 4.2101226993865  13.8036809815951 7.64723926380368  Z " fill-rule="nonzero" fill="#cdcdcd" stroke="none" transform="matrix(1 0 0 1 807 25 )" />
  </g>
</svg>