<?xml version="1.0" encoding="utf-8"?>
<svg version="1.1" xmlns:xlink="http://www.w3.org/1999/xlink" width="18px" height="14px" xmlns="http://www.w3.org/2000/svg">
  <g transform="matrix(1 0 0 1 -1229 -25 )">
    <path d="M 17.875 2.125  C 17.875 1  17 0.125  15.875 0.125  L 2.125 0.125  C 1 0.125  0.125 1  0.125 2.125  L 0.125 11.875  C 0.125 13  1 13.875  2.125 13.875  L 15.875 13.875  C 17 13.875  17.875 13  17.875 11.875  L 17.875 2.125  Z M 1.375 2.125  C 1.25 1.75  1.625 1.375  2.125 1.375  L 15.875 1.375  C 16.25 1.375  16.625 1.75  16.625 2.125  L 9.75 7.125  C 9.375 7.375  8.625 7.375  8.25 7.125  L 1.375 2.125  Z M 16.75 11.875  C 16.75 12.25  16.375 12.625  15.875 12.625  L 2.125 12.625  C 1.75 12.625  1.375 12.25  1.375 11.875  L 1.375 3.625  L 7.625 8.125  C 8 8.5  8.5 8.625  9 8.625  C 9.5 8.625  10 8.5  10.5 8.125  L 16.75 3.625  L 16.75 11.875  Z " fill-rule="nonzero" fill="#cccccc" stroke="none" transform="matrix(1 0 0 1 1229 25 )" />
  </g>
</svg>