<?xml version="1.0" encoding="utf-8"?>
<svg version="1.1" xmlns:xlink="http://www.w3.org/1999/xlink" width="26px" height="19px" xmlns="http://www.w3.org/2000/svg">
  <g transform="matrix(1 0 0 1 -25 -99 )">
    <path d="M 24.9534446022727 12.5295058139535  C 22.0344460227273 16.4625242248062  17.7642045454545 18.9493701550388  12.9967684659091 18.9493701550388  C 8.22933238636363 18.9493701550388  3.95909090909091 16.4625242248062  1.04009232954545 12.5295058139535  C -0.247904829545455 10.7929021317829  -0.247904829545455 8.21216085271318  1.04009232954545 6.47509689922481  C 3.95955255681818 2.54207848837209  8.22979403409091 0.0552325581395349  12.9972301136364 0.0552325581395349  C 17.7651278409091 0.0552325581395349  22.0353693181818 2.54207848837209  24.95390625 6.47509689922481  C 26.2423650568182 8.21216085271318  26.2423650568182 10.7929021317829  24.95390625 12.5295058139535  Z M 23.6571377840909 11.1035852713178  C 24.3025213068182 10.1761385658915  24.3025213068182 8.82938468992248  23.6571377840909 7.90147771317829  C 20.9500355113636 4.00712209302326  17.0537286931818 1.7734253875969  12.9676846590909 1.7734253875969  C 8.88117897727273 1.7734253875969  4.98487215909091 4.00712209302326  2.27776988636364 7.90147771317829  C 1.63284801136364 8.82938468992248  1.63284801136364 10.1761385658915  2.27776988636364 11.1040455426357  C 4.98487215909091 14.9984011627907  8.88117897727273 17.2325581395349  12.9676846590909 17.2325581395349  C 17.0537286931818 17.2325581395349  20.9500355113636 14.9984011627907  23.6571377840909 11.1035852713178  Z M 19.0374289772727 9.49723837209302  C 19.0374289772727 12.8190164728682  16.3367897727273 15.5116036821705  13.0055397727273 15.5116036821705  C 9.673828125 15.5116036821705  6.97318892045455 12.8190164728682  6.97318892045455 9.49723837209302  C 6.97318892045455 6.17592054263566  9.673828125 3.48333333333333  13.0055397727273 3.48333333333333  C 16.3367897727273 3.48333333333333  19.0374289772727 6.17592054263566  19.0374289772727 9.49723837209302  Z M 17.3140980113636 9.49723837209302  C 17.3140980113636 7.12478202923341  15.385090781684 5.2015261627907  13.0055397727273 5.2015261627907  C 10.6259887637706 5.2015261627907  8.69698153409091 7.12478202923341  8.69698153409091 9.49723837209303  C 8.6969815093589 11.8701549862705  10.6259887390386 13.7934108527132  13.0055397479953 13.7934108527132  C 15.385090806416 13.7934108527132  17.3140980360956 11.8701549862705  17.3140980360956 9.49769864341085  Z " fill-rule="nonzero" fill="#7f7f7f" stroke="none" transform="matrix(1 0 0 1 25 99 )" />
  </g>
</svg>