<?xml version="1.0" encoding="utf-8"?>
<svg version="1.1" xmlns:xlink="http://www.w3.org/1999/xlink" width="286px" height="33px" xmlns="http://www.w3.org/2000/svg">
  <defs>
    <mask fill="white" id="clip132">
      <path d="M 0 30.4615384615385  L 0 2.53846153846154  C 0 1.11692307692307  0.719085714285714 0  1.63428571428571 0  L 284.365714285714 0  C 285.280914285714 0  286 1.11692307692307  286 2.53846153846154  L 286 30.4615384615385  C 286 31.8830769230769  285.280914285714 33  284.365714285714 33  L 252.14693877551 33  L 1.63428571428571 33  C 0.719085714285714 33  0 31.8830769230769  0 30.4615384615385  Z " fill-rule="evenodd" />
    </mask>
  </defs>
  <g transform="matrix(1 0 0 1 -187 -287 )">
    <path d="M 0 30.4615384615385  L 0 2.53846153846154  C 0 1.11692307692307  0.719085714285714 0  1.63428571428571 0  L 284.365714285714 0  C 285.280914285714 0  286 1.11692307692307  286 2.53846153846154  L 286 30.4615384615385  C 286 31.8830769230769  285.280914285714 33  284.365714285714 33  L 252.14693877551 33  L 1.63428571428571 33  C 0.719085714285714 33  0 31.8830769230769  0 30.4615384615385  Z " fill-rule="nonzero" fill="#ffffff" stroke="none" transform="matrix(1 0 0 1 187 287 )" />
    <path d="M 0 30.4615384615385  L 0 2.53846153846154  C 0 1.11692307692307  0.719085714285714 0  1.63428571428571 0  L 284.365714285714 0  C 285.280914285714 0  286 1.11692307692307  286 2.53846153846154  L 286 30.4615384615385  C 286 31.8830769230769  285.280914285714 33  284.365714285714 33  L 252.14693877551 33  L 1.63428571428571 33  C 0.719085714285714 33  0 31.8830769230769  0 30.4615384615385  Z " stroke-width="2" stroke="#f2f2f2" fill="none" transform="matrix(1 0 0 1 187 287 )" mask="url(#clip132)" />
  </g>
</svg>