<?xml version="1.0" encoding="utf-8"?>
<svg version="1.1" xmlns:xlink="http://www.w3.org/1999/xlink" width="15px" height="15px" xmlns="http://www.w3.org/2000/svg">
  <g transform="matrix(1 0 0 1 -448 -296 )">
    <path d="M 13.3363759511719 12.0569563828125  C 15.8493121660156 8.84001746289063  15.2763246591797 4.178904703125  12.0593857392578 1.6662402890625  C 10.5011002460937 0.448777735351563  8.56220482421875 -0.088330109375  6.59937262207031 0.152668498046875  C 4.6370840546875 0.39366710546875  2.88587736523438 1.38469019042969  1.66866964550781 2.94299265039062  C 1.48772533105469 3.17488543359375  1.52880347363281 3.50947357324219  1.76069625683594 3.69041790429687  C 1.99258904003906 3.87136221875  2.32692236230469 3.82950260742188  2.50786667675781 3.59864612695313  C 3.54985521386719 2.26445571289063  5.04939451757813 1.4158980234375  6.72935151757813 1.20947099121094  C 8.41190774121094 1.00409722851563  10.0700345332031 1.46321094921875  11.4042419472656 2.5054543203125  C 14.15790496875 4.65648492285156  14.6482265224609 8.64738508398438  12.4971789365234 11.4018295742187  C 10.3456216992188 14.1560192304687  6.35602964160156 14.6468504521484  3.60080368261719 12.4947665634766  C 1.72379725878906 11.0284906816406  0.832071854492187 8.66245385742188  1.27404419628906 6.31953834472656  C 1.32864517480469 6.03044534277344  1.13884985351562 5.75200413574219  0.849756868164062 5.697420140625  C 0.563263106445312 5.64490875097656  0.281967825195312 5.83312413476563  0.227893498046875 6.12196230273438  C -0.28842044140625 8.85821212792969  0.753041444335937 11.6217454423828  2.94567684082031 13.333946578125  C 4.26010965234375 14.3608493417969  5.84544080078125 14.9036823017578  7.48797216796875 14.9036823017578  C 7.79215092675781 14.9036823017578  8.09840229101562 14.8854876367188  8.40516330664063 14.8475353691406  C 10.3679785253906 14.6062819443359  12.1191851982422 13.615258859375  13.3363759511719 12.0569563828125  Z " fill-rule="nonzero" fill="#8a8a8a" stroke="none" transform="matrix(1 0 0 1 448 296 )" />
  </g>
</svg>