<?xml version="1.0" encoding="utf-8"?>
<svg version="1.1" xmlns:xlink="http://www.w3.org/1999/xlink" width="12px" height="12px" xmlns="http://www.w3.org/2000/svg">
  <g transform="matrix(1 0 0 1 -655 -165 )">
    <path d="M 0 6  C 0 2.68637288671875  2.68637288671875 0  6 0  C 9.31362711328125 0  12 2.68637288671875  12 6  C 12 9.31362711328125  9.31362711328125 12  6 12  C 2.68637288671875 12  0 9.31362711328125  0 6  Z M 11.3898305039063 6  C 11.3898305039063 3.0231864375  8.9768135625 0.61016949609375  6 0.61016949609375  C 3.0231864375 0.61016949609375  0.61016949609375 3.0231864375  0.61016949609375 6  C 0.61016949609375 8.9768135625  3.0231864375 11.3898305039063  6 11.3898305039063  C 8.9768135625 11.3898305039063  11.3898305039063 8.9768135625  11.3898305039063 6  Z M 6 2.2372881328125  C 6.16849365051621 2.2372881328125  6.3050847421875 2.37387922448379  6.3050847421875 2.542372875  L 6.3050847421875 5.62372880859375  L 8.91945762890625 7.5231864375  C 8.99844790266141 7.58059840445914  9.04518686540237 7.67234961701031  9.04518686540237 7.77  C 9.04518686540237 7.93851260950893  8.9085804044308 8.0751190704805  8.74006779492188 8.0751190704805  C 8.67561382439751 8.0751190704805  8.6128153578473 8.05470823441871  8.5606779609375 8.0168135625  L 5.928 6.10372880859375  L 5.90705084765625 6.08705084765625  C 5.78072317327138 6.04664195279226  5.69497614551802 5.92924333662766  5.6949152578125 5.796610171875  L 5.6949152578125 2.54237288671875  C 5.6949152578125 2.37387922448379  5.83150634948378 2.2372881328125  6 2.2372881328125  Z " fill-rule="nonzero" fill="#d7d7d7" stroke="none" transform="matrix(1 0 0 1 655 165 )" />
  </g>
</svg>