<?xml version="1.0" encoding="utf-8"?>
<svg version="1.1" xmlns:xlink="http://www.w3.org/1999/xlink" width="14px" height="24px" xmlns="http://www.w3.org/2000/svg">
  <g transform="matrix(1 0 0 1 -103 -103 )">
    <path d="M 13.61551253125 12.65946075  C 13.63071625 12.62905334375  13.65732271875 12.60244684375  13.6687255 12.5720394375  C 13.93479034375 12.0171041875  13.84736903125 11.33293740625  13.37605415625 10.888229  L 2.6346359375 0.72835253125  C 2.04929325 0.17341728125  1.125668125 0.20002375  0.570732875000001 0.7853664375  C 0.0157976250000011 1.370709125  0.042404093750001 2.29433425  0.627746781250002 2.8492695  L 10.2668963125 11.967692125  L 0.66575603125 21.21914715625  C 0.0842142812500004 21.77788334375  0.0690105625000008 22.70150846875  0.62774678125 23.28305021875  C 0.91281628125 23.57952246875  1.29670984375 23.73155953125  1.6768025 23.73155953125  C 2.0416914375 23.73155953125  2.406580375 23.5947261875  2.6878489375 23.32105946875  L 13.3304430625 13.06235890625  C 13.3494476875 13.04335428125  13.3570495625 13.012946875  13.37985509375 12.99394221875  C 13.3950588125 12.9787385  13.4102625 12.96733571875  13.429267125 12.95213203125  C 13.5166884375 12.86471078125  13.558498625 12.75828484375  13.61551253125 12.65946075  Z " fill-rule="nonzero" fill="#555555" stroke="none" transform="matrix(1 0 0 1 103 103 )" />
  </g>
</svg>