<?xml version="1.0" encoding="utf-8"?>
<svg version="1.1" xmlns:xlink="http://www.w3.org/1999/xlink" width="16px" height="16px" xmlns="http://www.w3.org/2000/svg">
  <g transform="matrix(1 0 0 1 -12 -192 )">
    <path d="M 14.7266711168164 7.45053658536585  C 15.0769725482254 7.06576336098623  15.2317613649415 6.52732498970722  15.1431065468549 6.0019512195122  C 14.9656740636566 5.5023027056819  14.5650405282247 5.12806292332172  14.0736246469833 5.00292682926829  L 10.884107830552 4.09381463414634  L 8.73567958921695 0.787043902439024  C 8.49095854044539 0.3427411528836  8.05663713880567 0.0520165290217787  7.57155327342747 0.00780487804877971  C 7.07295975551029 0.0339677978642154  6.62715188082146 0.343858637586937  6.407426957638 0.817014634146341  L 4.62811193838254 3.81408780487805  L 2.24307265725289 4.58333658536585  L 1.07894634146341 5.00292682926829  C 0.62511312079939 5.1091864942876  0.247894263945763 5.44037916663416  0.0662510911424902 5.89205853658537  C -0.0582063591345429 6.41902718352363  0.0496285269515825 6.97714035738874  0.359648780487805 7.4105756097561  L 2.44182593068036 10.1978536585366  L 2.32825263157895 14.1939512195122  C 2.23729203474121 14.6756146263571  2.33272107722879 15.1756703827255  2.59325699614891 15.5825951219512  C 2.78092132640671 15.8024870360137  3.05129275750045 15.9232298332329  3.33148344030809 15.9122731707317  C 3.64039221032965 15.8974547947941  3.94456204239288 15.8264818339793  4.2306053915276 15.7024780487805  L 7.30654890885751 14.3837658536585  L 10.7989278562259 15.7524292682927  C 11.0031672256999 15.826715473038  11.2170762395962 15.8671559831278  11.4330454428755 15.8723121951219  C 11.8684097560976 15.8723121951219  12.597171758665 15.6625170731707  12.6539584082157 14.2538926829268  L 12.46466957638 10.6574048780488  L 14.7266711168164 7.45053658536585  Z " fill-rule="nonzero" fill="#ffffff" stroke="none" transform="matrix(1 0 0 1 12 192 )" />
  </g>
</svg>