<?xml version="1.0" encoding="utf-8"?>
<svg version="1.1" xmlns:xlink="http://www.w3.org/1999/xlink" width="14px" height="8px" xmlns="http://www.w3.org/2000/svg">
  <g transform="matrix(1 0 0 1 -218 -199 )">
    <path d="M 7.473333328125 5.7  C 7.34861903814 5.82723709528613  7.17816392875142 5.89926038173579  7 5.9  C 6.82183607124858 5.89926038173579  6.65138096186001 5.82723709528614  6.526666671875 5.7  L 2.526666671875 1.7  C 2.26818427824853 1.43997502928491  2.26818427824853 1.02002497071509  2.526666671875 0.760000000000002  C 2.65184440543014 0.633791570619572  2.82224164541525 0.562801124544523  3 0.562801124544523  C 3.17775835458475 0.562801124544523  3.34815559456986 0.633791570619572  3.473333328125 0.760000000000002  L 7 4.286666671875  L 10.526666671875 0.76  C 10.6518444054301 0.63379157061957  10.8222416454153 0.562801124544521  11 0.562801124544521  C 11.1777583545847 0.562801124544521  11.3481555945699 0.63379157061957  11.473333328125 0.76  C 11.7318157217515 1.02002497071509  11.7318157217515 1.43997502928491  11.473333328125 1.7  L 7.473333328125 5.7  Z M 13.6665646098078 6.5666666640625  C 13.6665646098078 6.93481664307468  13.3681499746979 7.23327696690357  13 7.233333328125  L 1 7.233333328125  C 0.631850025302076 7.23327696690357  0.333435390192241 6.93481664307468  0.333435390192241 6.5666666640625  C 0.333435390192241 6.19851668505032  0.631850025302078 5.90005636122143  1 5.9  L 13 5.9  C 13.3681499746979 5.90005636122143  13.6665646098078 6.19851668505032  13.6665646098078 6.5666666640625  Z " fill-rule="nonzero" fill="#ffffff" stroke="none" transform="matrix(1 0 0 1 218 199 )" />
  </g>
</svg>