<?xml version="1.0" encoding="utf-8"?>
<svg version="1.1" xmlns:xlink="http://www.w3.org/1999/xlink" width="17px" height="15px" xmlns="http://www.w3.org/2000/svg">
  <g transform="matrix(1 0 0 1 -113 -192 )">
    <path d="M 6.1115 2.51249959966777  C 6.11072727272727 1.08824982660237  7.20877272727273 0  8.66459090909091 0  C 9.94809090909091 0  11.3328181818182 1.09949982480984  11.3328181818182 2.87624954170922  C 11.3328181818182 3.6824994132444  11.2895454545455 4.24649932337878  11.2060909090909 4.70999924952645  L 13.7074090909091 4.70999924952645  C 14.5450454545455 4.70999924952645  15.2822272727273 5.07599919120939  15.7837272727273 5.73899908556949  C 16.1627909325377 6.25430229344915  16.3113147198285 6.89637539189057  16.1955909090909 7.51949880187136  C 16.0178636363636 8.44799865392769  14.9321818181818 13.2082478954475  14.7119545454545 13.6334978276898  C 14.5017727272727 14.0362477635171  14.1834090909091 14.3759977093826  13.7908636363636 14.6152476712614  C 13.3782761220491 14.8672507381111  12.9005749674347 15.0006511795006  12.4130909090909 15  L 1.47745454545455 15  C 0.704727272727273 14.9999976099568  0 14.3204977182258  0 13.5742478371304  L 0.00618181818181819 6.61799894551295  C 0.00618181818181819 5.88149906286407  0.626681818181818 5.2814991584658  1.39013636363636 5.2814991584658  L 3.49040909090909 5.27099916013883  C 4.92304545454545 5.17199917591312  6.07131818181818 3.98474936508503  6.1115 2.51249959966777  Z M 9.78736363636364 2.87624954170922  C 9.78736363636364 1.93724969132592  9.11740909090909 1.49999976099568  8.66459090909091 1.49999976099568  C 8.08890909090909 1.49999976099568  7.70331818181818 1.85849970387365  7.65772727272727 2.48099960468686  C 7.55186363636364 4.50449928227004  6.36881818181818 5.99774904434124  4.63636363636364 6.55949895483412  L 4.63636363636364 13.4939978499172  L 12.4092272727273 13.4999978489612  C 12.7859094802802 13.5013267731051  13.1336207943113 13.3040060736218  13.3171818181818 12.9847479310591  C 13.498 12.6599979828036  14.5836818181818 7.71074877139831  14.6810454545455 7.24574884548965  C 14.7784090909091 6.78074891958099  14.3503181818182 6.20999901052213  13.7074090909091 6.20999901052213  L 9.10813636363636 6.20999901052213  L 9.52927272727273 5.05049919527246  C 9.68381818181818 4.59824926733227  9.78736363636364 4.0987493469207  9.78736363636364 2.87624954170922  Z M 3.09090909090909 13.4932478500367  L 3.09090909090909 6.77174892101501  L 1.55163636363636 6.78074891958099  L 1.54545454545455 13.4917478502757  L 3.09090909090909 13.4932478500367  Z " fill-rule="nonzero" fill="#ffffff" stroke="none" transform="matrix(1 0 0 1 113 192 )" />
  </g>
</svg>