<?xml version="1.0" encoding="utf-8"?>
<svg version="1.1" xmlns:xlink="http://www.w3.org/1999/xlink" width="19px" height="13px" xmlns="http://www.w3.org/2000/svg">
  <g transform="matrix(1 0 0 1 -6 -164 )">
    <path d="M 11.0797266514806 6.5  C 11.0797266514806 5.77199624137349  10.3674585034169 5.17635679591664  9.49690855429005 5.17635679591664  C 8.62635860516325 5.17635679591664  7.91409045709947 5.77199624137349  7.91409045709947 6.5  C 7.91409045709947 7.22800375862651  8.62635860516325 7.82364320408336  9.49690855429005 7.82364320408336  C 10.3674585034169 7.82364320408336  11.0797266514806 7.22800375862651  11.0797266514806 6.5  Z M 12.6625447342445 6.5  C 12.6625447342445 7.96041965780815  11.2432845231587 9.14728639610225  9.49690855429005 9.14728639610225  C 7.75053258542141 9.14728639610225  6.33127237433561 7.96041965780815  6.33127237433561 6.5  C 6.33127237433561 5.03958034219185  7.75053259984814 3.85271360389775  9.49690855429005 3.85271360389775  C 11.243284508732 3.85271360389775  12.6625447342445 5.03958034219185  12.6625447342445 6.5  Z M 17.3635144768413 6.5  C 16.7198351169324 4.70866953513878  13.6386159081245 1.64664160111364  9.49690855429005 1.64664160111364  C 5.35520121488231 1.64664160111364  2.27398199164768 4.70866953513878  1.6303026317388 6.5  C 2.27398199164768 8.29133046486122  5.35520121488231 11.3533583988864  9.49690855429005 11.3533583988864  C 13.6386158936978 11.3533583988864  16.7198351169324 8.29133046486122  17.3635144768413 6.5  Z M 18.9938171085801 6.5  C 18.4662110858011 8.70607200278411  14.7413125026576 12.6770016029697  9.49690855429005 12.6770016029697  C 4.25250460592255 12.6770016029697  0.527606037205771 8.70607200278411  0 6.5  C 0.527606037205771 4.29392799721589  4.25250460592255 0.322998397030288  9.49690855429005 0.322998397030288  C 14.7413125026576 0.322998397030288  18.4662110858011 4.29392799721589  18.9938171085801 6.5  Z " fill-rule="nonzero" fill="#d7d7d7" stroke="none" transform="matrix(1 0 0 1 6 164 )" />
  </g>
</svg>