<?xml version="1.0" encoding="utf-8"?>
<svg version="1.1" xmlns:xlink="http://www.w3.org/1999/xlink" width="21px" height="21px" xmlns="http://www.w3.org/2000/svg">
  <g transform="matrix(1 0 0 1 -750 -102 )">
    <path d="M 20.7231237405711 20.7715063154805  C 21.0070993803879 20.5572934417901  21.0070993803879 20.0574634505961  20.7231237405711 19.771846309384  L 15.1146044652478 14.1309078474982  C 16.321501016972 12.6314178739162  17.1024340853987 10.7035022003703  17.1024340853987 8.63277796807261  C 17.1024340853987 3.92009519734465  13.2687626885776 0.064263850252891  8.58316430158944 0.064263850252891  C 3.8975659146013 0.064263850252891  0.0638945177801745 3.92009519734465  0.0638945177801745 8.63277796807261  C 0.0638945177801745 13.3454607388006  3.8975659146013 17.2012920858923  8.58316430158944 17.2012920858923  C 10.7129817416487 17.2012920858923  12.6298174400593 16.4158449534863  14.1206896551724 15.1305678535947  L 19.7292089304957 20.7715063154805  C 19.8711967504041 20.9143148742323  20.084178515625 20.9857191654624  20.2261663355334 20.9857191654624  C 20.3681541554418 20.9857191654624  20.5811359206627 20.9143148742323  20.7231237405711 20.7715063154805  Z M 15.6825557920259 8.70418223559429  C 15.6825557920259 12.6314178739162  12.4878296201509 15.8446106710621  8.58316430158944 15.8446106710621  C 4.67849898302802 15.8446106710621  1.48377281115302 12.6314178739162  1.48377281115302 8.70418223559429  C 1.48377281115302 4.7769465972724  4.67849898302802 1.56375380012645  8.58316430158944 1.56375380012645  C 12.4878296201509 1.56375380012645  15.6825557920259 4.7769465972724  15.6825557920259 8.70418223559429  Z " fill-rule="nonzero" fill="#517ab7" stroke="none" transform="matrix(1 0 0 1 750 102 )" />
  </g>
</svg>