<?xml version="1.0" encoding="utf-8"?>
<svg version="1.1" xmlns:xlink="http://www.w3.org/1999/xlink" width="149px" height="124px" xmlns="http://www.w3.org/2000/svg">
  <g transform="matrix(1 0 0 1 -271 -395 )">
    <path d="M 271 395  L 420 395  L 420 519  L 271 519  L 271 395  " fill-rule="nonzero" fill="#cccccc" stroke="none" />
    <path d="M 280 404  L 411 404  L 411 510  L 280 510  L 280 404  " fill-rule="nonzero" fill="#ffffff" stroke="none" />
    <path d="M 357.78 432.2  C 352.572 432.2  348.48 428.108  348.48 422.9  C 348.48 417.692  352.572 413.6  357.78 413.6  C 362.988 413.6  367.08 417.692  367.08 422.9  C 367.08 428.108  362.988 432.2  357.78 432.2  " fill-rule="nonzero" fill="#cccccc" stroke="none" />
    <path d="M 283 507  L 283 452  L 314.25 427  L 358 457.06711409396  L 383 442  L 408 457.06711409396  L 408 507  L 283 507  " fill-rule="nonzero" fill="#169bd5" stroke="none" />
  </g>
</svg>