<?xml version="1.0" encoding="utf-8"?>
<svg version="1.1" xmlns:xlink="http://www.w3.org/1999/xlink" width="117px" height="89px" xmlns="http://www.w3.org/2000/svg">
  <g transform="matrix(1 0 0 1 -271 -395 )">
    <path d="M 271 395  L 388 395  L 388 484  L 271 484  L 271 395  " fill-rule="nonzero" fill="#cccccc" stroke="none" />
    <path d="M 277 401  L 382 401  L 382 478  L 277 478  L 277 401  " fill-rule="nonzero" fill="#ffffff" stroke="none" />
    <path d="M 338.515 421.7  C 334.777 421.7  331.84 418.763  331.84 415.025  C 331.84 411.287  334.777 408.35  338.515 408.35  C 342.253 408.35  345.19 411.287  345.19 415.025  C 345.19 418.763  342.253 421.7  338.515 421.7  " fill-rule="nonzero" fill="#cccccc" stroke="none" />
    <path d="M 279 476  L 279 435.85  L 304.25 417.6  L 339.6 442.682051282051  L 359.8 428.55  L 380 442.682051282051  L 380 476  L 279 476  " fill-rule="nonzero" fill="#169bd5" stroke="none" />
  </g>
</svg>