<?xml version="1.0" encoding="utf-8"?>
<svg version="1.1" xmlns:xlink="http://www.w3.org/1999/xlink" width="21px" height="21px" xmlns="http://www.w3.org/2000/svg">
  <g transform="matrix(1 0 0 1 -319 -429 )">
    <path d="M 7.74203089306359 7.2101116965318  L 7.74203089306358 13.7716253439306  C 7.74203089306358 14.6248704971098  8.33813367630058 14.9645614190751  9.07157384971098 14.5306336647399  L 14.9047609450867 11.2761754971098  C 15.6396621560694 10.8422477427746  15.6396621560694 10.1394893179191  14.9047609450867 9.70556156358382  L 9.07157384971098 6.45110339595376  C 8.33813367630058 6.0171756416185  7.74203089306359 6.35686656358382  7.74203089306359 7.2101116965318  Z M 15.0764327080925 10.4901380115607  L 8.32206228323699 14.3509262052023  L 8.32206228323699 6.62934981791908  L 15.0764327080925 10.4901380115607  Z M 10.4449478930636 0.35712134682081  C 4.84844868208092 0.35712134682081  0.311931228323699 4.89363878034682  0.311931228323699 10.4901380115607  C 0.311931228323699 16.0866372225434  4.84844868208093 20.6231546763006  10.4449478930636 20.6231546763006  C 16.0414471040462 20.6231546763006  20.5779645578035 16.0866372225434  20.5779645578035 10.4901380115607  C 20.5779645578035 4.89363880057804  16.0414471040462 0.35712134682081  10.4449478930636 0.35712134682081  Z M 10.4449478930636 20.0445843236994  C 5.17060715317919 20.0445843034682  0.890501580924855 15.7644787312139  0.890501580924855 10.4901380115607  C 0.890501580924855 5.2157972716763  5.1706071734104 0.935691679190752  10.4449478930636 0.935691679190752  C 15.7192886127168 0.935691679190752  19.9993942254335 5.2157972716763  19.9993942254335 10.4901380115607  C 19.9993942254335 15.7644787514451  15.719288632948 20.0445843439306  10.4449478930636 20.0445843236994  Z " fill-rule="nonzero" fill="#7f7f7f" stroke="none" transform="matrix(1 0 0 1 319 429 )" />
  </g>
</svg>